<svg width="103" height="107" viewBox="0 0 103 107" fill="none" xmlns="http://www.w3.org/2000/svg">
<path d="M40.5603 55.2594H42.7358H51.8891V45.1974C48.7196 43.3673 45.9133 41.5788 43.4476 39.8263L40.5603 55.2594Z" fill="#ECB267"/>
<path d="M70.7704 36.8125C65.1061 21.7195 51.8891 8.30367 36.7839 3.27271C36.4422 3.63049 36.1097 3.98803 35.7869 4.3454C33.2305 8.01585 35.8068 14.5693 40.7594 20.8811H52.8332V32.1337C59.0248 36.3072 65.6716 38.6239 70.7704 36.8125Z" fill="#ECB267"/>
<path fill-rule="evenodd" clip-rule="evenodd" d="M36.6269 2.42236L37.0231 2.55434C52.3619 7.66311 65.7411 21.2568 71.4793 36.5464L71.6619 37.0332L71.2732 37.3785C70.8332 37.7693 70.3059 38.3437 69.6575 39.0499C69.3093 39.4291 68.9262 39.8465 68.5029 40.2937C67.3258 41.5377 65.9015 42.9399 64.2518 44.1337C61.1741 46.361 57.2427 47.903 52.6462 46.3101V54.5022H59.4416C61.6626 54.5022 63.1774 55.7453 64.1576 57.2436C65.1255 58.7231 65.622 60.5132 65.852 61.8377L66.006 62.7243H28.4082L28.4769 61.904C28.5061 61.5562 28.5286 61.2015 28.5517 60.8372L28.5579 60.7395C28.583 60.3443 28.6095 59.939 28.6462 59.5399C28.7191 58.7478 28.8353 57.935 29.0844 57.2046C29.3358 56.4675 29.7366 55.772 30.4043 55.267C31.0763 54.7587 31.9404 54.5022 33.0076 54.5022H39.9317L42.6146 40.1614C33.586 33.6638 29.0393 27.5426 28.1273 21.5022C27.2002 15.3621 30.0639 9.56177 35.194 3.87228C35.502 3.4378 35.8717 3.04146 36.3039 2.68716L36.6269 2.42236ZM34.03 7.64344C30.5671 12.2256 28.9348 16.7082 29.6245 21.2761C30.4573 26.7916 34.7104 32.6882 43.8861 39.2091C46.3203 40.9392 49.0945 42.7082 52.2325 44.5214C56.6019 46.4455 60.3126 45.1154 63.3641 42.9071C64.9006 41.7951 66.2495 40.4722 67.4031 39.253C67.7703 38.8649 68.1254 38.4785 68.4627 38.1113L68.465 38.1088C66.4103 38.3414 64.2223 38.0767 62.0044 37.4456C58.8337 36.5433 55.5513 34.8788 52.41 32.7614C47.8125 29.6623 43.4687 25.5603 40.1638 21.3484C37.6549 18.151 35.718 14.8563 34.7377 11.8579C34.2604 10.3982 33.9986 8.97019 34.03 7.64344ZM69.7734 36.3288C67.5884 36.9069 65.0889 36.749 62.4188 35.9892C59.552 35.1734 56.5352 33.6762 53.5903 31.7288V20.124H41.1295C38.7989 17.105 37.0557 14.0753 36.1769 11.3874C35.2705 8.61497 35.3292 6.36271 36.382 4.81603C36.5841 4.5927 36.7902 4.36917 37.0002 4.14543C51.4331 9.12885 64.0914 21.8912 69.7734 36.3288ZM42.3486 21.6381C45.1124 24.9346 48.4945 28.1074 52.0761 30.6836V21.6381H42.3486ZM51.132 45.6337C48.5016 44.1036 46.1203 42.6003 43.9757 41.1203L41.4721 54.5022H51.132V45.6337ZM30.0451 61.2102H64.1755C63.9235 60.1742 63.5145 59.0264 62.8905 58.0725C62.0931 56.8537 60.9969 56.0164 59.4416 56.0164H33.0076C32.1867 56.0164 31.6672 56.2103 31.3178 56.4746C30.9641 56.7422 30.7057 57.1415 30.5175 57.6933C30.3271 58.2517 30.2236 58.9219 30.1541 59.6786C30.1195 60.0539 30.0942 60.4395 30.069 60.8356L30.0627 60.9353C30.0569 61.0265 30.0511 61.1181 30.0451 61.2102Z" fill="black"/>
<path fill-rule="evenodd" clip-rule="evenodd" d="M63.4212 0.600654C63.5077 0.191565 63.9095 -0.0699581 64.3185 0.0165261C69.2094 1.05049 72.4957 2.51706 74.766 5.03364C77.0254 7.53811 78.1808 10.9774 79.0671 15.7107C79.1441 16.1217 78.8733 16.5173 78.4623 16.5942C78.0513 16.6712 77.6558 16.4004 77.5788 15.9894C76.7031 11.313 75.6075 8.22695 73.6417 6.04792C71.6868 3.88101 68.7736 2.506 64.0054 1.49797C63.5963 1.41149 63.3347 1.00974 63.4212 0.600654ZM61.5263 6.50564C61.5932 6.09289 61.982 5.81249 62.3948 5.87936C65.5568 6.39163 67.812 7.18067 69.2909 8.78198C70.7743 10.3882 71.3455 12.6681 71.5262 15.8066C71.5502 16.224 71.2313 16.5819 70.8139 16.6059C70.3964 16.63 70.0385 16.311 70.0145 15.8936C69.8386 12.8378 69.29 11.0128 68.1785 9.80932C67.0625 8.60095 65.2476 7.87547 62.1526 7.37406C61.7399 7.30719 61.4595 6.91839 61.5263 6.50564Z" fill="#ECB267"/>
<path d="M62.464 16.6529C63.6118 16.6529 64.5423 15.7224 64.5423 14.5746C64.5423 13.4268 63.6118 12.4963 62.464 12.4963C61.3162 12.4963 60.3857 13.4268 60.3857 14.5746C60.3857 15.7224 61.3162 16.6529 62.464 16.6529Z" fill="#ECB267"/>
<path fill-rule="evenodd" clip-rule="evenodd" d="M101.068 71.5176L0 71.5176L1.76499e-07 69.4987L101.068 69.4987C101.625 69.4987 102.077 69.9506 102.077 70.5081C102.077 71.0656 101.625 71.5176 101.068 71.5176Z" fill="black"/>
<path d="M47.1114 84.7982C46.1242 84.7982 45.2323 84.9714 44.4356 85.3177C43.6389 85.6468 42.9635 86.1404 42.4093 86.7985C41.855 87.4393 41.4307 88.2274 41.1363 89.1626C40.8419 90.0805 40.6947 91.1196 40.6947 92.28C40.6947 93.8041 40.9285 95.129 41.3961 96.2548C41.881 97.3805 42.5911 98.2465 43.5263 98.8526C44.4789 99.4588 45.6652 99.7619 47.0854 99.7619C47.8994 99.7619 48.6701 99.6926 49.3975 99.5541C50.1249 99.4155 50.835 99.2423 51.5278 99.0345V101.061C50.835 101.321 50.1163 101.511 49.3715 101.632C48.6441 101.754 47.7695 101.814 46.7477 101.814C44.8599 101.814 43.2839 101.425 42.0196 100.645C40.7553 99.8658 39.8027 98.7574 39.1619 97.3199C38.5384 95.8824 38.2267 94.1938 38.2267 92.2541C38.2267 90.8512 38.4172 89.5696 38.7982 88.4092C39.1966 87.2488 39.7681 86.2443 40.5128 85.3957C41.2748 84.547 42.2101 83.8976 43.3185 83.4473C44.4269 82.9797 45.6999 82.7458 47.1374 82.7458C48.0899 82.7458 49.0078 82.8411 49.8911 83.0316C50.7744 83.2221 51.5624 83.4906 52.2552 83.837L51.3199 85.8113C50.7484 85.5515 50.1076 85.3177 49.3975 85.1099C48.7048 84.9021 47.9427 84.7982 47.1114 84.7982Z" fill="black"/>
<path d="M35.8462 101.554H33.0405L24.6494 92.1501V101.554H22.3113V83.0056H24.6494V91.9942L32.8327 83.0056H35.4825L27.4291 92.0202L35.8462 101.554Z" fill="black"/>
<path d="M12.5477 84.7982C11.5605 84.7982 10.6686 84.9714 9.87187 85.3177C9.07519 85.6468 8.39975 86.1404 7.84553 86.7985C7.29132 87.4393 6.867 88.2274 6.57258 89.1626C6.27815 90.0805 6.13094 91.1196 6.13094 92.28C6.13094 93.8041 6.36475 95.129 6.83236 96.2548C7.3173 97.3805 8.02738 98.2465 8.96262 98.8526C9.91517 99.4588 11.1015 99.7619 12.5217 99.7619C13.3357 99.7619 14.1064 99.6926 14.8338 99.5541C15.5612 99.4155 16.2713 99.2423 16.9641 99.0345V101.061C16.2713 101.321 15.5525 101.511 14.8078 101.632C14.0804 101.754 13.2058 101.814 12.184 101.814C10.2962 101.814 8.72015 101.425 7.45585 100.645C6.19156 99.8658 5.239 98.7574 4.5982 97.3199C3.97471 95.8824 3.66296 94.1938 3.66296 92.2541C3.66296 90.8512 3.85347 89.5696 4.2345 88.4092C4.63284 87.2488 5.20437 86.2443 5.94909 85.3957C6.71113 84.547 7.64636 83.8976 8.75479 83.4473C9.86321 82.9797 11.1362 82.7458 12.5737 82.7458C13.5262 82.7458 14.4441 82.8411 15.3274 83.0316C16.2107 83.2221 16.9987 83.4906 17.6915 83.837L16.7562 85.8113C16.1847 85.5515 15.5439 85.3177 14.8338 85.1099C14.141 84.9021 13.379 84.7982 12.5477 84.7982Z" fill="black"/>
<path fill-rule="evenodd" clip-rule="evenodd" d="M81.7231 81.4477C82.6072 79.8917 84.0421 78.6946 86.0409 78.6946C88.0396 78.6946 89.4745 79.8917 90.3586 81.4477C91.2319 82.9845 91.6371 84.9626 91.6371 86.8796C91.6371 88.7966 91.2319 90.7746 90.3586 92.3115C89.4745 93.8674 88.0396 95.0646 86.0409 95.0646C84.0421 95.0646 82.6072 93.8674 81.7231 92.3115C80.8499 90.7746 80.4446 88.7966 80.4446 86.8796C80.4446 84.9626 80.8499 82.9845 81.7231 81.4477ZM83.4784 91.3141C84.1233 92.449 84.9817 93.0457 86.0409 93.0457C87.1 93.0457 87.9585 92.449 88.6033 91.3141C89.259 90.1601 89.6182 88.5504 89.6182 86.8796C89.6182 85.2088 89.259 83.5991 88.6033 82.4451C87.9585 81.3102 87.1 80.7135 86.0409 80.7135C84.9817 80.7135 84.1233 81.3102 83.4784 82.4451C82.8227 83.5991 82.4635 85.2088 82.4635 86.8796C82.4635 88.5504 82.8227 90.1601 83.4784 91.3141ZM67.9073 80.256C67.9073 79.6985 68.3593 79.2465 68.9168 79.2465H77.7363C78.077 79.2465 78.3947 79.4184 78.5811 79.7034C78.7676 79.9885 78.7977 80.3484 78.6612 80.6605L72.8674 93.9077C72.644 94.4185 72.0488 94.6514 71.538 94.428C71.0272 94.2046 70.7942 93.6095 71.0176 93.0987L76.1931 81.2655H68.9168C68.3593 81.2655 67.9073 80.8135 67.9073 80.256Z" fill="#ECB267"/>
<path d="M100.413 98.4705H59.1318L63.4128 102.61L59.1318 106.75H100.413L95.8262 102.61L100.413 98.4705Z" fill="#ECB267"/>
<path d="M89.5331 105.721C89.3807 105.721 89.2525 105.673 89.1486 105.576C89.0516 105.472 89.0031 105.344 89.0031 105.191V102.219C89.0031 101.783 88.8958 101.461 88.681 101.253C88.4662 101.038 88.1857 100.931 87.8393 100.931C87.4791 100.931 87.1812 101.056 86.9456 101.305C86.717 101.554 86.6027 101.873 86.6027 102.261H85.7402C85.7402 101.811 85.8372 101.416 86.0312 101.076C86.2251 100.73 86.4953 100.46 86.8417 100.266C87.195 100.072 87.5968 99.9749 88.0471 99.9749C88.442 99.9749 88.7918 100.061 89.0967 100.235C89.4015 100.408 89.637 100.664 89.8033 101.004C89.9765 101.336 90.0631 101.741 90.0631 102.219V105.191C90.0631 105.344 90.0146 105.472 89.9176 105.576C89.8206 105.673 89.6924 105.721 89.5331 105.721ZM82.602 105.721C82.4496 105.721 82.3214 105.673 82.2175 105.576C82.1205 105.472 82.072 105.344 82.072 105.191V100.567C82.072 100.408 82.1205 100.28 82.2175 100.183C82.3214 100.086 82.4496 100.037 82.602 100.037C82.7613 100.037 82.8895 100.086 82.9865 100.183C83.0835 100.28 83.132 100.408 83.132 100.567V105.191C83.132 105.344 83.0835 105.472 82.9865 105.576C82.8895 105.673 82.7613 105.721 82.602 105.721ZM86.0727 105.721C85.9203 105.721 85.7922 105.673 85.6883 105.576C85.5913 105.472 85.5428 105.344 85.5428 105.191V102.219C85.5428 101.783 85.4354 101.461 85.2206 101.253C85.0059 101.038 84.7253 100.931 84.3789 100.931C84.0187 100.931 83.7208 101.056 83.4853 101.305C83.2497 101.554 83.132 101.873 83.132 102.261H82.4773C82.4773 101.811 82.5673 101.416 82.7475 101.076C82.9276 100.73 83.177 100.46 83.4957 100.266C83.8143 100.072 84.178 99.9749 84.5868 99.9749C84.9816 99.9749 85.3315 100.061 85.6363 100.235C85.9411 100.408 86.1767 100.664 86.3429 101.004C86.5161 101.336 86.6027 101.741 86.6027 102.219V105.191C86.6027 105.344 86.5542 105.472 86.4572 105.576C86.3602 105.673 86.2321 105.721 86.0727 105.721Z" fill="white"/>
<path d="M78.2887 105.753C77.7137 105.753 77.2011 105.632 76.7508 105.389C76.3074 105.14 75.9576 104.8 75.7012 104.371C75.4518 103.934 75.3271 103.436 75.3271 102.874C75.3271 102.306 75.4449 101.808 75.6805 101.378C75.9229 100.942 76.2555 100.602 76.678 100.36C77.1006 100.11 77.5856 99.9856 78.1328 99.9856C78.6732 99.9856 79.1374 100.107 79.5253 100.349C79.9133 100.585 80.2077 100.914 80.4086 101.336C80.6164 101.752 80.7203 102.234 80.7203 102.781C80.7203 102.913 80.6753 103.023 80.5852 103.113C80.4952 103.197 80.3809 103.238 80.2423 103.238H76.0546V102.407H80.2111L79.7851 102.698C79.7782 102.351 79.7089 102.043 79.5773 101.773C79.4456 101.496 79.2586 101.278 79.0161 101.118C78.7737 100.959 78.4792 100.879 78.1328 100.879C77.738 100.879 77.3985 100.966 77.1145 101.139C76.8374 101.312 76.6261 101.551 76.4806 101.856C76.3351 102.154 76.2624 102.493 76.2624 102.874C76.2624 103.255 76.349 103.595 76.5222 103.893C76.6954 104.191 76.9344 104.426 77.2392 104.599C77.544 104.773 77.8938 104.859 78.2887 104.859C78.5035 104.859 78.7217 104.821 78.9434 104.745C79.172 104.662 79.3556 104.568 79.4941 104.464C79.598 104.388 79.7089 104.35 79.8267 104.35C79.9514 104.343 80.0587 104.378 80.1488 104.454C80.2666 104.558 80.3289 104.672 80.3358 104.797C80.3428 104.922 80.2873 105.029 80.1696 105.119C79.934 105.306 79.6396 105.458 79.2863 105.576C78.9399 105.694 78.6074 105.753 78.2887 105.753Z" fill="white"/>
<path d="M71.6493 100.038C71.7532 100.038 71.8467 100.065 71.9299 100.121C72.013 100.176 72.0788 100.263 72.1273 100.381L74.268 105.026C74.3303 105.164 74.3372 105.289 74.2887 105.4C74.2402 105.504 74.1571 105.583 74.0393 105.639C73.8869 105.708 73.7553 105.725 73.6445 105.691C73.5336 105.656 73.4401 105.569 73.3639 105.431L71.4103 100.994H71.9403L69.9243 105.431C69.862 105.562 69.7685 105.649 69.6438 105.691C69.526 105.725 69.3944 105.708 69.2489 105.639C69.1173 105.576 69.0237 105.493 68.9683 105.389C68.9198 105.285 68.9302 105.164 68.9995 105.026L71.1505 100.381C71.2544 100.152 71.4207 100.038 71.6493 100.038Z" fill="white"/>
</svg>
