<svg width="293" height="80" viewBox="0 0 293 80" fill="none" xmlns="http://www.w3.org/2000/svg">
<g clip-path="url(#clip0_199_32)">
<path d="M88.7274 20.7991C87.6801 20.7991 86.6975 20.6051 85.7795 20.2172C84.8744 19.8164 84.0793 19.2669 83.3941 18.5688C82.7217 17.8576 82.1916 17.0302 81.8038 16.0863C81.4288 15.1424 81.2413 14.1211 81.2413 13.0221C81.2413 11.936 81.4288 10.9275 81.8038 9.99661C82.1916 9.05276 82.7217 8.23175 83.3941 7.53357C84.0793 6.82245 84.8744 6.2665 85.7795 5.86568C86.6846 5.46487 87.6672 5.26447 88.7274 5.26447C89.7229 5.26447 90.5763 5.39377 91.2874 5.65235C92.0114 5.91093 92.7355 6.3376 93.4595 6.93235C93.5629 7.00993 93.6405 7.09397 93.6923 7.18448C93.7569 7.26205 93.7957 7.34609 93.8086 7.4366C93.8345 7.51418 93.8474 7.61115 93.8474 7.72751C93.8474 7.97317 93.7569 8.18003 93.5759 8.34812C93.4078 8.50327 93.201 8.59378 92.9553 8.61963C92.7096 8.63257 92.4705 8.54852 92.2377 8.36751C91.7593 7.95378 91.2616 7.637 90.7444 7.4172C90.2401 7.19741 89.5678 7.08751 88.7274 7.08751C87.9646 7.08751 87.2471 7.24266 86.5747 7.55296C85.9023 7.86327 85.3077 8.28994 84.7904 8.83297C84.2862 9.376 83.8919 10.0095 83.6074 10.7336C83.3229 11.4447 83.1807 12.2075 83.1807 13.0221C83.1807 13.8496 83.3229 14.6253 83.6074 15.3494C83.8919 16.0605 84.2862 16.6875 84.7904 17.2306C85.3077 17.7736 85.9023 18.2003 86.5747 18.5106C87.2471 18.8079 87.9646 18.9566 88.7274 18.9566C89.3868 18.9566 90.0074 18.8467 90.5892 18.6269C91.184 18.3942 91.7529 18.0775 92.2959 17.6766C92.5286 17.5085 92.7549 17.4375 92.9747 17.4633C93.2074 17.4763 93.4014 17.5667 93.5565 17.7348C93.7117 17.89 93.7893 18.1097 93.7893 18.3942C93.7893 18.5235 93.7634 18.6528 93.7117 18.7821C93.6599 18.8985 93.5823 19.0084 93.479 19.1118C92.7808 19.6678 92.0308 20.0879 91.2292 20.3724C90.4405 20.6569 89.6066 20.7991 88.7274 20.7991ZM101.495 20.6051C101.211 20.6051 100.972 20.5082 100.778 20.3142C100.584 20.1203 100.487 19.8811 100.487 19.5966V5.45841H102.504V19.5966C102.504 19.8811 102.407 20.1203 102.213 20.3142C102.019 20.5082 101.78 20.6051 101.495 20.6051ZM96.2977 7.32023C96.0262 7.32023 95.7999 7.2362 95.619 7.06811C95.4508 6.88711 95.3668 6.66084 95.3668 6.38932C95.3668 6.11781 95.4508 5.89801 95.619 5.72993C95.7999 5.54892 96.0262 5.45841 96.2977 5.45841H106.674C106.945 5.45841 107.165 5.54892 107.333 5.72993C107.514 5.89801 107.604 6.11781 107.604 6.38932C107.604 6.66084 107.514 6.88711 107.333 7.06811C107.165 7.2362 106.945 7.32023 106.674 7.32023H96.2977ZM107.683 20.6051C107.321 20.6051 107.043 20.45 106.849 20.1397C106.655 19.8294 106.636 19.4997 106.791 19.1506L112.241 6.1372C112.435 5.68468 112.751 5.45841 113.191 5.45841C113.656 5.45841 113.973 5.68468 114.141 6.1372L119.61 19.1894C119.753 19.5514 119.727 19.8811 119.533 20.1785C119.352 20.4629 119.074 20.6051 118.699 20.6051C118.505 20.6051 118.317 20.5534 118.136 20.45C117.968 20.3336 117.846 20.1785 117.768 19.9845L112.958 8.03781H113.501L108.614 19.9845C108.523 20.1914 108.388 20.3466 108.207 20.45C108.039 20.5534 107.864 20.6051 107.683 20.6051ZM108.711 17.2694L109.487 15.6015H117.089L117.865 17.2694H108.711ZM122.929 20.6051C122.645 20.6051 122.405 20.5082 122.211 20.3142C122.017 20.1203 121.92 19.8811 121.92 19.5966V6.4669C121.92 6.16953 122.017 5.93033 122.211 5.74932C122.405 5.55538 122.645 5.45841 122.929 5.45841H127.564C128.444 5.45841 129.212 5.63296 129.872 5.98205C130.545 6.31821 131.068 6.79014 131.443 7.39781C131.831 8.00549 132.025 8.70367 132.025 9.49236C132.025 10.1259 131.85 10.7013 131.501 11.2184C131.165 11.7227 130.7 12.1235 130.105 12.4209C130.958 12.6278 131.644 13.035 132.16 13.6427C132.678 14.2503 132.936 15.0455 132.936 16.0281C132.936 16.9203 132.723 17.709 132.296 18.3942C131.883 19.0794 131.301 19.6225 130.551 20.0233C129.801 20.4112 128.941 20.6051 127.971 20.6051H122.929ZM123.937 18.7433H127.971C128.566 18.7433 129.09 18.6399 129.542 18.433C129.995 18.2261 130.351 17.9223 130.609 17.5215C130.868 17.1206 130.997 16.6229 130.997 16.0281C130.997 15.4721 130.868 15.0132 130.609 14.6512C130.351 14.2891 129.995 14.0176 129.542 13.8366C129.09 13.6427 128.566 13.5457 127.971 13.5457H123.937V18.7433ZM123.937 11.6839H127.564C128.301 11.6839 128.902 11.5029 129.368 11.1409C129.846 10.7788 130.085 10.2293 130.085 9.49236C130.085 8.75539 129.846 8.21236 129.368 7.86327C128.902 7.50124 128.301 7.32023 127.564 7.32023H123.937V11.6839ZM136.945 20.6051C136.66 20.6051 136.421 20.5082 136.227 20.3142C136.033 20.1203 135.936 19.8811 135.936 19.5966V6.4669C135.936 6.16953 136.033 5.93033 136.227 5.74932C136.421 5.55538 136.66 5.45841 136.945 5.45841H140.823C141.793 5.45841 142.652 5.67174 143.403 6.09841C144.153 6.52508 144.735 7.11983 145.148 7.88266C145.575 8.63257 145.788 9.49882 145.788 10.4815C145.788 11.4253 145.575 12.2657 145.148 13.0027C144.735 13.7396 144.153 14.315 143.403 14.7287C142.652 15.1424 141.793 15.3494 140.823 15.3494H137.953V19.5966C137.953 19.8811 137.856 20.1203 137.662 20.3142C137.482 20.5082 137.242 20.6051 136.945 20.6051ZM137.953 13.4875H140.823C141.419 13.4875 141.942 13.3582 142.394 13.0996C142.846 12.8411 143.203 12.4855 143.461 12.033C143.719 11.5805 143.849 11.0633 143.849 10.4815C143.849 9.86085 143.719 9.31782 143.461 8.85236C143.203 8.37397 142.846 7.99903 142.394 7.72751C141.942 7.45599 141.419 7.32023 140.823 7.32023H137.953V13.4875ZM155.021 20.7991C153.883 20.7991 152.842 20.6115 151.899 20.2366C150.954 19.8488 150.14 19.3122 149.455 18.6269C148.782 17.9288 148.259 17.1078 147.884 16.1639C147.508 15.2072 147.322 14.1599 147.322 13.0221C147.322 11.8843 147.508 10.8435 147.884 9.89964C148.259 8.95579 148.782 8.14124 149.455 7.45599C150.14 6.75781 150.954 6.22124 151.899 5.84629C152.842 5.45841 153.883 5.26447 155.021 5.26447C156.158 5.26447 157.193 5.45841 158.124 5.84629C159.067 6.22124 159.882 6.75781 160.568 7.45599C161.253 8.14124 161.782 8.95579 162.158 9.89964C162.533 10.8435 162.72 11.8843 162.72 13.0221C162.72 14.1599 162.533 15.2072 162.158 16.1639C161.782 17.1078 161.253 17.9288 160.568 18.6269C159.882 19.3122 159.067 19.8488 158.124 20.2366C157.193 20.6115 156.158 20.7991 155.021 20.7991ZM155.021 18.976C155.861 18.976 156.631 18.8273 157.329 18.53C158.039 18.2197 158.654 17.7994 159.171 17.2694C159.688 16.7263 160.083 16.0927 160.354 15.3687C160.638 14.6447 160.781 13.8624 160.781 13.0221C160.781 12.1817 160.638 11.3994 160.354 10.6754C160.083 9.95136 159.688 9.32428 159.171 8.79418C158.654 8.25115 158.039 7.83094 157.329 7.53357C156.631 7.2362 155.861 7.08751 155.021 7.08751C154.18 7.08751 153.404 7.2362 152.694 7.53357C151.996 7.83094 151.387 8.25115 150.871 8.79418C150.366 9.32428 149.971 9.95136 149.688 10.6754C149.403 11.3994 149.261 12.1817 149.261 13.0221C149.261 13.8624 149.403 14.6447 149.688 15.3687C149.971 16.0927 150.366 16.7263 150.871 17.2694C151.387 17.7994 151.996 18.2197 152.694 18.53C153.404 18.8273 154.18 18.976 155.021 18.976ZM166.888 20.6051C166.603 20.6051 166.364 20.5082 166.17 20.3142C165.976 20.1203 165.879 19.8811 165.879 19.5966V6.4669C165.879 6.16953 165.976 5.93033 166.17 5.74932C166.364 5.55538 166.603 5.45841 166.888 5.45841H177.205C177.502 5.45841 177.742 5.55538 177.923 5.74932C178.117 5.93033 178.214 6.16953 178.214 6.4669V19.5966C178.214 19.8811 178.117 20.1203 177.923 20.3142C177.742 20.5082 177.502 20.6051 177.205 20.6051C176.92 20.6051 176.682 20.5082 176.488 20.3142C176.294 20.1203 176.197 19.8811 176.197 19.5966V7.24266H167.896V19.5966C167.896 19.8811 167.799 20.1203 167.605 20.3142C167.425 20.5082 167.185 20.6051 166.888 20.6051ZM189.093 20.7991C187.954 20.7991 186.914 20.6115 185.97 20.2366C185.026 19.8488 184.211 19.3122 183.527 18.6269C182.854 17.9288 182.33 17.1078 181.956 16.1639C181.581 15.2072 181.393 14.1599 181.393 13.0221C181.393 11.8843 181.581 10.8435 181.956 9.89964C182.33 8.95579 182.854 8.14124 183.527 7.45599C184.211 6.75781 185.026 6.22124 185.97 5.84629C186.914 5.45841 187.954 5.26447 189.093 5.26447C190.231 5.26447 191.265 5.45841 192.196 5.84629C193.14 6.22124 193.954 6.75781 194.639 7.45599C195.324 8.14124 195.855 8.95579 196.23 9.89964C196.604 10.8435 196.792 11.8843 196.792 13.0221C196.792 14.1599 196.604 15.2072 196.23 16.1639C195.855 17.1078 195.324 17.9288 194.639 18.6269C193.954 19.3122 193.14 19.8488 192.196 20.2366C191.265 20.6115 190.231 20.7991 189.093 20.7991ZM189.093 18.976C189.933 18.976 190.702 18.8273 191.4 18.53C192.112 18.2197 192.725 17.7994 193.243 17.2694C193.761 16.7263 194.154 16.0927 194.426 15.3687C194.711 14.6447 194.853 13.8624 194.853 13.0221C194.853 12.1817 194.711 11.3994 194.426 10.6754C194.154 9.95136 193.761 9.32428 193.243 8.79418C192.725 8.25115 192.112 7.83094 191.4 7.53357C190.702 7.2362 189.933 7.08751 189.093 7.08751C188.253 7.08751 187.477 7.2362 186.765 7.53357C186.067 7.83094 185.46 8.25115 184.942 8.79418C184.438 9.32428 184.044 9.95136 183.759 10.6754C183.474 11.3994 183.333 12.1817 183.333 13.0221C183.333 13.8624 183.474 14.6447 183.759 15.3687C184.044 16.0927 184.438 16.7263 184.942 17.2694C185.46 17.7994 186.067 18.2197 186.765 18.53C187.477 18.8273 188.253 18.976 189.093 18.976ZM199.01 20.6051C198.648 20.6051 198.37 20.45 198.176 20.1397C197.982 19.8294 197.963 19.4997 198.118 19.1506L203.568 6.1372C203.762 5.68468 204.078 5.45841 204.518 5.45841C204.984 5.45841 205.3 5.68468 205.468 6.1372L210.938 19.1894C211.079 19.5514 211.06 19.8811 210.879 20.1785C210.711 20.4629 210.439 20.6051 210.065 20.6051C209.871 20.6051 209.683 20.5534 209.502 20.45C209.334 20.3336 209.211 20.1785 209.134 19.9845L204.285 8.03781H204.906L199.941 19.9845C199.85 20.1914 199.714 20.3466 199.534 20.45C199.365 20.5534 199.191 20.6051 199.01 20.6051ZM214.369 20.6051C214.084 20.6051 213.845 20.5082 213.651 20.3142C213.458 20.1203 213.361 19.8811 213.361 19.5966V6.36993C213.361 6.09841 213.458 5.87862 213.651 5.71053C213.845 5.54245 214.084 5.45841 214.369 5.45841C214.666 5.45841 214.906 5.54245 215.087 5.71053C215.281 5.87862 215.378 6.09841 215.378 6.36993V11.296H219.411C220.381 11.296 221.241 11.4899 221.991 11.8778C222.741 12.2657 223.323 12.8023 223.736 13.4875C224.163 14.1599 224.376 14.9421 224.376 15.8342C224.376 16.7651 224.163 17.5926 223.736 18.3166C223.323 19.0278 222.741 19.5902 221.991 20.0039C221.241 20.4048 220.381 20.6051 219.411 20.6051H214.369ZM215.378 18.7433H219.411C220.007 18.7433 220.53 18.6334 220.982 18.4136C221.435 18.1938 221.791 17.8706 222.049 17.4439C222.307 17.0043 222.437 16.4678 222.437 15.8342C222.437 15.1878 222.307 14.6641 222.049 14.2633C221.791 13.8496 221.435 13.5457 220.982 13.3518C220.53 13.1449 220.007 13.0415 219.411 13.0415H215.378V18.7433ZM233.879 20.7991C232.832 20.7991 231.849 20.6051 230.932 20.2172C230.026 19.8164 229.231 19.2669 228.546 18.5688C227.873 17.8576 227.344 17.0302 226.956 16.0863C226.581 15.1424 226.393 14.1211 226.393 13.0221C226.393 11.936 226.581 10.9275 226.956 9.99661C227.344 9.05276 227.873 8.23175 228.546 7.53357C229.231 6.82245 230.026 6.2665 230.932 5.86568C231.837 5.46487 232.819 5.26447 233.879 5.26447C234.875 5.26447 235.728 5.39377 236.439 5.65235C237.163 5.91093 237.888 6.3376 238.612 6.93235C238.715 7.00993 238.792 7.09397 238.844 7.18448C238.909 7.26205 238.947 7.34609 238.961 7.4366C238.986 7.51418 238.999 7.61115 238.999 7.72751C238.999 7.97317 238.909 8.18003 238.728 8.34812C238.559 8.50327 238.353 8.59378 238.107 8.61963C237.861 8.63257 237.622 8.54852 237.39 8.36751C236.911 7.95378 236.414 7.637 235.896 7.4172C235.392 7.19741 234.719 7.08751 233.879 7.08751C233.117 7.08751 232.399 7.24266 231.727 7.55296C231.054 7.86327 230.46 8.28994 229.942 8.83297C229.438 9.376 229.044 10.0095 228.759 10.7336C228.475 11.4447 228.333 12.2075 228.333 13.0221C228.333 13.8496 228.475 14.6253 228.759 15.3494C229.044 16.0605 229.438 16.6875 229.942 17.2306C230.46 17.7736 231.054 18.2003 231.727 18.5106C232.399 18.8079 233.117 18.9566 233.879 18.9566C234.539 18.9566 235.159 18.8467 235.741 18.6269C236.336 18.3942 236.905 18.0775 237.448 17.6766C237.681 17.5085 237.907 17.4375 238.127 17.4633C238.359 17.4763 238.553 17.5667 238.709 17.7348C238.864 17.89 238.941 18.1097 238.941 18.3942C238.941 18.5235 238.916 18.6528 238.864 18.7821C238.812 18.8985 238.734 19.0084 238.631 19.1118C237.933 19.6678 237.182 20.0879 236.381 20.3724C235.592 20.6569 234.758 20.7991 233.879 20.7991ZM253.3 20.353C253.118 20.534 252.873 20.6181 252.563 20.6051C252.253 20.6051 252.007 20.5017 251.826 20.2948L245.465 12.8863L251.399 5.78811C251.58 5.56831 251.813 5.45841 252.098 5.45841C252.395 5.44548 252.633 5.54245 252.815 5.74932C252.996 5.95619 253.079 6.17599 253.067 6.40872C253.067 6.62851 252.976 6.84185 252.796 7.04872L247.889 12.7506L253.3 19.0342C253.481 19.2411 253.578 19.4609 253.591 19.6936C253.616 19.9134 253.519 20.1332 253.3 20.353ZM243.176 20.6051C242.892 20.6051 242.653 20.5082 242.459 20.3142C242.265 20.1203 242.168 19.8811 242.168 19.5966V6.4669C242.168 6.16953 242.265 5.93033 242.459 5.74932C242.653 5.55538 242.892 5.45841 243.176 5.45841C243.473 5.45841 243.712 5.55538 243.894 5.74932C244.088 5.93033 244.185 6.16953 244.185 6.4669V12.033H247.366V13.8172H244.185V19.5966C244.185 19.8811 244.088 20.1203 243.894 20.3142C243.712 20.5082 243.473 20.6051 243.176 20.6051ZM257.401 20.6051C257.116 20.6051 256.87 20.5082 256.664 20.3142C256.456 20.1203 256.353 19.8811 256.353 19.5966V6.4669C256.353 6.16953 256.456 5.93033 256.664 5.74932C256.87 5.55538 257.116 5.45841 257.401 5.45841C257.698 5.45841 257.93 5.55538 258.099 5.74932C258.279 5.93033 258.37 6.16953 258.37 6.4669V17.4633L267.68 5.8269C267.886 5.58124 268.145 5.45841 268.455 5.45841C268.752 5.45841 268.991 5.55538 269.173 5.74932C269.367 5.93033 269.464 6.16953 269.464 6.4669V19.5966C269.464 19.8811 269.367 20.1203 269.173 20.3142C268.991 20.5082 268.752 20.6051 268.455 20.6051C268.17 20.6051 267.932 20.5082 267.738 20.3142C267.544 20.1203 267.447 19.8811 267.447 19.5966V8.61963L258.176 20.256C258.086 20.3594 257.969 20.4436 257.827 20.5082C257.684 20.5728 257.543 20.6051 257.401 20.6051ZM274.389 20.6051C274.105 20.6051 273.859 20.5082 273.652 20.3142C273.446 20.1203 273.341 19.8811 273.341 19.5966V6.4669C273.341 6.16953 273.446 5.93033 273.652 5.74932C273.859 5.55538 274.105 5.45841 274.389 5.45841C274.687 5.45841 274.92 5.55538 275.087 5.74932C275.269 5.93033 275.358 6.16953 275.358 6.4669V17.4633L284.667 5.8269C284.875 5.58124 285.133 5.45841 285.443 5.45841C285.741 5.45841 285.98 5.55538 286.161 5.74932C286.355 5.93033 286.452 6.16953 286.452 6.4669V19.5966C286.452 19.8811 286.355 20.1203 286.161 20.3142C285.98 20.5082 285.741 20.6051 285.443 20.6051C285.16 20.6051 284.92 20.5082 284.726 20.3142C284.532 20.1203 284.435 19.8811 284.435 19.5966V8.61963L275.164 20.256C275.075 20.3594 274.958 20.4436 274.815 20.5082C274.674 20.5728 274.532 20.6051 274.389 20.6051ZM279.916 4.06204C279.257 4.06204 278.663 3.95214 278.132 3.73234C277.602 3.49962 277.181 3.18931 276.871 2.80143C276.561 2.40062 276.406 1.95456 276.406 1.46325C276.406 1.19173 276.49 0.965466 276.658 0.784454C276.826 0.603444 277.034 0.512939 277.278 0.512939C277.538 0.512939 277.744 0.603444 277.899 0.784454C278.067 0.965466 278.151 1.19173 278.151 1.46325C278.151 1.78648 278.32 2.06446 278.655 2.29719C278.992 2.51698 279.412 2.62689 279.916 2.62689C280.42 2.62689 280.841 2.51698 281.177 2.29719C281.514 2.06446 281.681 1.78648 281.681 1.46325C281.681 1.19173 281.766 0.965466 281.933 0.784454C282.101 0.603444 282.309 0.512939 282.554 0.512939C282.813 0.512939 283.019 0.603444 283.174 0.784454C283.343 0.965466 283.426 1.19173 283.426 1.46325C283.426 1.95456 283.271 2.40062 282.961 2.80143C282.65 3.18931 282.231 3.49962 281.7 3.73234C281.184 3.95214 280.589 4.06204 279.916 4.06204ZM93.0717 49.444C92.8907 49.625 92.645 49.7091 92.3347 49.6961C92.0244 49.6961 91.7787 49.5927 91.5977 49.3858L85.2365 41.9773L91.1711 34.8791C91.352 34.6594 91.5848 34.5494 91.8692 34.5494C92.1666 34.5364 92.4059 34.6334 92.5868 34.8403C92.7678 35.0472 92.8519 35.267 92.8389 35.4997C92.8389 35.7195 92.7484 35.9328 92.5674 36.1397L87.6607 41.8416L93.0717 48.1252C93.2526 48.3321 93.3496 48.5519 93.3626 48.7846C93.3884 49.0044 93.2914 49.2243 93.0717 49.444ZM82.948 49.6961C82.6635 49.6961 82.4244 49.5992 82.2304 49.4052C82.0365 49.2113 81.9395 48.9721 81.9395 48.6876V35.5579C81.9395 35.2606 82.0365 35.0213 82.2304 34.8403C82.4244 34.6464 82.6635 34.5494 82.948 34.5494C83.2453 34.5494 83.4846 34.6464 83.6656 34.8403C83.8595 35.0213 83.9565 35.2606 83.9565 35.5579V41.124H87.1371V42.9082H83.9565V48.6876C83.9565 48.9721 83.8595 49.2113 83.6656 49.4052C83.4846 49.5992 83.2453 49.6961 82.948 49.6961ZM102.35 49.8901C101.212 49.8901 100.171 49.7026 99.2275 49.3276C98.2836 48.9398 97.469 48.4032 96.7838 47.7179C96.1114 47.0198 95.5878 46.1988 95.2129 45.2549C94.838 44.2982 94.6505 43.2509 94.6505 42.1131C94.6505 40.9753 94.838 39.9345 95.2129 38.9906C95.5878 38.0468 96.1114 37.2322 96.7838 36.547C97.469 35.8488 98.2836 35.3122 99.2275 34.9373C100.171 34.5494 101.212 34.3555 102.35 34.3555C103.488 34.3555 104.522 34.5494 105.453 34.9373C106.397 35.3122 107.211 35.8488 107.897 36.547C108.582 37.2322 109.112 38.0468 109.487 38.9906C109.862 39.9345 110.049 40.9753 110.049 42.1131C110.049 43.2509 109.862 44.2982 109.487 45.2549C109.112 46.1988 108.582 47.0198 107.897 47.7179C107.211 48.4032 106.397 48.9398 105.453 49.3276C104.522 49.7026 103.488 49.8901 102.35 49.8901ZM102.35 48.067C103.19 48.067 103.96 47.9183 104.658 47.621C105.369 47.3107 105.983 46.8904 106.5 46.3604C107.017 45.8173 107.412 45.1838 107.683 44.4598C107.968 43.7357 108.11 42.9534 108.11 42.1131C108.11 41.2727 107.968 40.4904 107.683 39.7664C107.412 39.0424 107.017 38.4152 106.5 37.8852C105.983 37.3422 105.369 36.9219 104.658 36.6246C103.96 36.3272 103.19 36.1785 102.35 36.1785C101.51 36.1785 100.734 36.3272 100.023 36.6246C99.3244 36.9219 98.7168 37.3422 98.1996 37.8852C97.6953 38.4152 97.301 39.0424 97.0165 39.7664C96.732 40.4904 96.5899 41.2727 96.5899 42.1131C96.5899 42.9534 96.732 43.7357 97.0165 44.4598C97.301 45.1838 97.6953 45.8173 98.1996 46.3604C98.7168 46.8904 99.3244 47.3107 100.023 47.621C100.734 47.9183 101.51 48.067 102.35 48.067ZM112.267 49.6961C111.905 49.6961 111.627 49.541 111.433 49.2307C111.239 48.9204 111.22 48.5907 111.375 48.2416L116.825 35.2282C117.019 34.7757 117.336 34.5494 117.775 34.5494C118.241 34.5494 118.557 34.7757 118.726 35.2282L124.194 48.2804C124.337 48.6424 124.318 48.9721 124.136 49.2695C123.969 49.5539 123.697 49.6961 123.321 49.6961C123.128 49.6961 122.941 49.6444 122.759 49.541C122.592 49.4246 122.468 49.2695 122.391 49.0755L117.543 37.1288H118.163L113.198 49.0755C113.108 49.2824 112.972 49.4376 112.791 49.541C112.623 49.6444 112.448 49.6961 112.267 49.6961ZM126.055 49.6961C125.694 49.6961 125.415 49.541 125.221 49.2307C125.027 48.9204 125.008 48.5907 125.163 48.2416L130.612 35.2282C130.806 34.7757 131.124 34.5494 131.563 34.5494C132.028 34.5494 132.346 34.7757 132.513 35.2282L137.982 48.2804C138.125 48.6424 138.106 48.9721 137.924 49.2695C137.757 49.5539 137.485 49.6961 137.109 49.6961C136.915 49.6961 136.729 49.6444 136.547 49.541C136.38 49.4246 136.256 49.2695 136.178 49.0755L131.33 37.1288H131.951L126.986 49.0755C126.896 49.2824 126.76 49.4376 126.578 49.541C126.411 49.6444 126.237 49.6961 126.055 49.6961ZM141.414 49.6961C141.13 49.6961 140.89 49.5992 140.696 49.4052C140.502 49.2113 140.405 48.9721 140.405 48.6876V35.5579C140.405 35.2606 140.502 35.0213 140.696 34.8403C140.89 34.6464 141.13 34.5494 141.414 34.5494H150.18C150.478 34.5494 150.717 34.64 150.897 34.8209C151.079 34.9891 151.169 35.2152 151.169 35.4997C151.169 35.7712 151.079 35.991 150.897 36.1591C150.717 36.3272 150.478 36.4112 150.18 36.4112H142.422V41.124H147.988C148.286 41.124 148.525 41.2145 148.706 41.3955C148.888 41.5636 148.977 41.7834 148.977 42.0549C148.977 42.3264 148.888 42.5527 148.706 42.7337C148.525 42.9018 148.286 42.9858 147.988 42.9858H142.422V47.8343H150.18C150.478 47.8343 150.717 47.9183 150.897 48.0864C151.079 48.2546 151.169 48.4743 151.169 48.7458C151.169 49.0303 151.079 49.263 150.897 49.444C150.717 49.6121 150.478 49.6961 150.18 49.6961H141.414ZM155.712 49.0755L153.986 48.2416L159.436 35.2282C159.629 34.7757 159.946 34.5494 160.386 34.5494C160.851 34.5494 161.168 34.7757 161.336 35.2282L166.805 48.2804L165.196 49.0755L160.269 37.1288H160.541L155.712 49.0755ZM153.54 53.1483C153.255 53.1483 153.016 53.0513 152.822 52.8574C152.628 52.6634 152.531 52.4243 152.531 52.1398V48.9204C152.531 48.623 152.628 48.3838 152.822 48.2028C153.016 48.0089 153.255 47.9119 153.54 47.9119H167.193C167.49 47.9119 167.729 48.0089 167.911 48.2028C168.105 48.3838 168.202 48.623 168.202 48.9204V52.1398C168.202 52.4243 168.105 52.6634 167.911 52.8574C167.729 53.0513 167.49 53.1483 167.193 53.1483C166.908 53.1483 166.669 53.0513 166.476 52.8574C166.282 52.6634 166.185 52.4243 166.185 52.1398V49.6961H154.548V52.1398C154.548 52.4243 154.451 52.6634 154.257 52.8574C154.076 53.0513 153.837 53.1483 153.54 53.1483ZM169.799 49.444C169.592 49.2243 169.495 49.0044 169.508 48.7846C169.534 48.5649 169.631 48.345 169.799 48.1252L174.512 41.8416L170.303 36.1397C170.135 35.92 170.045 35.7001 170.032 35.4803C170.019 35.2606 170.103 35.0472 170.284 34.8403C170.465 34.6334 170.705 34.53 171.002 34.53C171.299 34.53 171.531 34.6464 171.7 34.8791L176.839 41.9773L171.273 49.3858C171.105 49.5927 170.86 49.6961 170.536 49.6961C170.226 49.7091 169.98 49.625 169.799 49.444ZM179.128 49.6961C178.843 49.6961 178.604 49.5992 178.41 49.4052C178.216 49.2113 178.119 48.9721 178.119 48.6876V42.9082H174.939V41.124H178.119V35.5579C178.119 35.2606 178.216 35.0213 178.41 34.8403C178.604 34.6464 178.843 34.5494 179.128 34.5494C179.425 34.5494 179.665 34.6464 179.845 34.8403C180.039 35.0213 180.136 35.2606 180.136 35.5579V41.124H183.317V42.9082H180.136V48.6876C180.136 48.9721 180.039 49.2113 179.845 49.4052C179.665 49.5992 179.425 49.6961 179.128 49.6961ZM188.495 49.444C188.314 49.625 188.062 49.7091 187.739 49.6961C187.415 49.6961 187.176 49.5927 187.021 49.3858L181.416 41.9773L186.594 34.8791C186.763 34.6464 186.996 34.53 187.293 34.53C187.59 34.53 187.83 34.6334 188.01 34.8403C188.191 35.0472 188.268 35.2606 188.243 35.4803C188.23 35.7001 188.146 35.92 187.991 36.1397L183.763 41.8416L188.495 48.1252C188.664 48.345 188.76 48.5649 188.786 48.7846C188.811 49.0044 188.714 49.2243 188.495 49.444ZM204.011 49.8901C202.964 49.8901 201.982 49.6961 201.064 49.3083C200.159 48.9074 199.364 48.3579 198.678 47.6598C198.007 46.9486 197.476 46.1212 197.088 45.1773C196.713 44.2334 196.525 43.2121 196.525 42.1131C196.525 41.027 196.713 40.0185 197.088 39.0876C197.476 38.1437 198.007 37.3228 198.678 36.6246C199.364 35.9134 200.159 35.3575 201.064 34.9567C201.969 34.5558 202.952 34.3555 204.011 34.3555C205.008 34.3555 205.861 34.4848 206.571 34.7434C207.296 35.0019 208.02 35.4286 208.744 36.0234C208.848 36.1009 208.925 36.1849 208.976 36.2755C209.042 36.3531 209.081 36.4371 209.093 36.5276C209.119 36.6052 209.131 36.7021 209.131 36.8185C209.131 37.0642 209.042 37.271 208.86 37.4391C208.693 37.5943 208.485 37.6848 208.239 37.7106C207.994 37.7236 207.754 37.6395 207.522 37.4585C207.044 37.0448 206.546 36.728 206.028 36.5082C205.524 36.2885 204.853 36.1785 204.011 36.1785C203.249 36.1785 202.531 36.3337 201.859 36.644C201.187 36.9543 200.592 37.3809 200.074 37.924C199.57 38.467 199.176 39.1006 198.891 39.8246C198.608 40.5357 198.465 41.2985 198.465 42.1131C198.465 42.9406 198.608 43.7164 198.891 44.4404C199.176 45.1515 199.57 45.7785 200.074 46.3216C200.592 46.8646 201.187 47.2913 201.859 47.6016C202.531 47.8989 203.249 48.0476 204.011 48.0476C204.671 48.0476 205.291 47.9377 205.873 47.7179C206.468 47.4852 207.037 47.1685 207.58 46.7676C207.813 46.5995 208.039 46.5285 208.259 46.5543C208.491 46.5673 208.685 46.6577 208.841 46.8258C208.996 46.981 209.073 47.2007 209.073 47.4852C209.073 47.6145 209.048 47.7438 208.996 47.8731C208.945 47.9895 208.867 48.0994 208.763 48.2028C208.065 48.7588 207.316 49.1789 206.513 49.4634C205.725 49.7479 204.891 49.8901 204.011 49.8901ZM213.308 49.6961C213.024 49.6961 212.785 49.5992 212.591 49.4052C212.397 49.2113 212.3 48.9721 212.3 48.6876V35.5579C212.3 35.2606 212.397 35.0213 212.591 34.8403C212.785 34.6464 213.024 34.5494 213.308 34.5494H217.944C218.822 34.5494 219.592 34.724 220.251 35.0731C220.924 35.4092 221.448 35.8812 221.822 36.4888C222.21 37.0965 222.404 37.7946 222.404 38.5834C222.404 39.2169 222.23 39.7922 221.881 40.3094C221.545 40.8137 221.079 41.2145 220.484 41.5119C221.338 41.7188 222.022 42.126 222.54 42.7337C223.058 43.3413 223.316 44.1365 223.316 45.1191C223.316 46.0113 223.102 46.8 222.676 47.4852C222.262 48.1704 221.681 48.7135 220.93 49.1143C220.18 49.5022 219.321 49.6961 218.351 49.6961H213.308ZM214.317 47.8343H218.351C218.946 47.8343 219.47 47.7309 219.922 47.524C220.374 47.3171 220.73 47.0133 220.988 46.6125C221.247 46.2116 221.376 45.7139 221.376 45.1191C221.376 44.5631 221.247 44.1042 220.988 43.7422C220.73 43.3801 220.374 43.1086 219.922 42.9276C219.47 42.7337 218.946 42.6367 218.351 42.6367H214.317V47.8343ZM214.317 40.7749H217.944C218.681 40.7749 219.282 40.5939 219.747 40.2319C220.226 39.8698 220.465 39.3203 220.465 38.5834C220.465 37.8464 220.226 37.3034 219.747 36.9543C219.282 36.5922 218.681 36.4112 217.944 36.4112H214.317V40.7749ZM235.469 49.6961C235.185 49.6961 234.945 49.5992 234.751 49.4052C234.557 49.2113 234.46 48.9721 234.46 48.6876V43.8585H230.795V43.6646C229.825 43.6646 228.965 43.4836 228.215 43.1216C227.478 42.7467 226.896 42.2294 226.47 41.57C226.043 40.9107 225.83 40.1607 225.83 39.3203C225.83 38.3894 226.043 37.5685 226.47 36.8573C226.896 36.1333 227.478 35.5709 228.215 35.17C228.965 34.7563 229.825 34.5494 230.795 34.5494H235.469C235.767 34.5494 236.005 34.6464 236.186 34.8403C236.38 35.0213 236.477 35.2606 236.477 35.5579V48.6876C236.477 48.9721 236.38 49.2113 236.186 49.4052C236.005 49.5992 235.767 49.6961 235.469 49.6961ZM226.838 49.6961C226.425 49.6961 226.134 49.5346 225.965 49.2113C225.798 48.8752 225.83 48.5195 226.062 48.1446L229.243 43.0246L231.202 43.587L227.711 49.2113C227.608 49.3794 227.478 49.5022 227.323 49.5798C227.181 49.6573 227.02 49.6961 226.838 49.6961ZM230.795 42.0743H234.46V36.4112H230.795C230.213 36.4112 229.689 36.5212 229.224 36.7409C228.772 36.9607 228.416 37.2904 228.157 37.73C227.899 38.1567 227.769 38.6868 227.769 39.3203C227.769 39.9151 227.899 40.4194 228.157 40.8331C228.416 41.2339 228.772 41.5442 229.224 41.764C229.689 41.9709 230.213 42.0743 230.795 42.0743ZM244.791 49.8901C244.079 49.8901 243.362 49.7995 242.638 49.6186C241.913 49.4376 241.267 49.1789 240.699 48.8428C240.142 48.4937 239.749 48.0864 239.516 47.621C239.502 47.3753 239.489 47.1297 239.477 46.884C239.477 46.6383 239.58 46.4509 239.787 46.3216C240.007 46.1794 240.226 46.1406 240.447 46.2052C240.679 46.257 240.879 46.3927 241.048 46.6125C241.384 47.0262 241.882 47.3818 242.541 47.6792C243.213 47.9765 243.95 48.1252 244.752 48.1252C245.437 48.1252 246.038 48.0024 246.556 47.7567C247.086 47.511 247.499 47.1685 247.797 46.7288C248.107 46.2764 248.262 45.7656 248.262 45.1967C248.262 44.408 247.991 43.7745 247.448 43.2961C246.905 42.8177 246.199 42.5785 245.334 42.5785H244.054C243.808 42.5785 243.608 42.4945 243.453 42.3264C243.298 42.1583 243.22 41.9515 243.22 41.7058C243.22 41.4343 243.298 41.2145 243.453 41.0464C243.608 40.8783 243.808 40.7943 244.054 40.7943H245.043C245.728 40.7943 246.304 40.5745 246.769 40.1349C247.235 39.6953 247.467 39.1134 247.467 38.3894C247.467 37.6137 247.196 37.0448 246.653 36.6828C246.11 36.3078 245.412 36.1203 244.558 36.1203C243.924 36.1203 243.329 36.2367 242.774 36.4694C242.231 36.7022 241.752 37.0642 241.339 37.5555C241.118 37.84 240.893 38.0274 240.66 38.1179C240.427 38.2085 240.187 38.1697 239.942 38.0015C239.761 37.8722 239.638 37.6912 239.574 37.4585C239.509 37.2128 239.547 36.9866 239.689 36.7797C240.181 36.0815 240.827 35.5061 241.63 35.0537C242.444 34.5882 243.42 34.3555 244.558 34.3555C245.515 34.3555 246.355 34.53 247.079 34.8791C247.803 35.2152 248.372 35.6743 248.786 36.2561C249.199 36.8249 249.407 37.4715 249.407 38.1955C249.407 38.7773 249.277 39.3009 249.019 39.7664C248.773 40.2189 248.456 40.6068 248.069 40.93C247.693 41.2403 247.299 41.4795 246.886 41.6476C246.471 41.8028 246.11 41.8803 245.799 41.8803V41.2597C246.149 41.2597 246.568 41.3309 247.06 41.4731C247.551 41.6024 248.036 41.8222 248.515 42.1325C249.006 42.4428 249.407 42.863 249.717 43.3931C250.039 43.9103 250.202 44.5503 250.202 45.3131C250.202 46.1664 249.962 46.9422 249.484 47.6404C249.019 48.3256 248.379 48.8752 247.564 49.2889C246.75 49.6897 245.825 49.8901 244.791 49.8901ZM254.256 49.6961C253.972 49.6961 253.727 49.5992 253.519 49.4052C253.312 49.2113 253.209 48.9721 253.209 48.6876V35.5579C253.209 35.2606 253.312 35.0213 253.519 34.8403C253.727 34.6464 253.972 34.5494 254.256 34.5494C254.553 34.5494 254.786 34.6464 254.955 34.8403C255.135 35.0213 255.226 35.2606 255.226 35.5579V46.5543L264.535 34.9179C264.743 34.6722 265.001 34.5494 265.311 34.5494C265.608 34.5494 265.848 34.6464 266.029 34.8403C266.223 35.0213 266.32 35.2606 266.32 35.5579V48.6876C266.32 48.9721 266.223 49.2113 266.029 49.4052C265.848 49.5992 265.608 49.6961 265.311 49.6961C265.026 49.6961 264.787 49.5992 264.593 49.4052C264.4 49.2113 264.303 48.9721 264.303 48.6876V37.7106L255.032 49.347C254.941 49.4504 254.825 49.5346 254.683 49.5992C254.541 49.6638 254.398 49.6961 254.256 49.6961Z" fill="#FBAE4A"/>
<path d="M16.3293 47.6225H18.1818H25.976V39.0546C23.2771 37.4962 20.8875 35.9732 18.7879 34.481L16.3293 47.6225Z" fill="#FBAE4A"/>
<path d="M42.0539 31.9147C37.2306 19.0628 25.9761 7.63893 13.1138 3.35498C12.8228 3.65964 12.5397 3.9641 12.2648 4.2684C10.088 7.39385 12.2818 12.9742 16.499 18.3488H26.78V27.9306C32.0523 31.4844 37.7122 33.4571 42.0539 31.9147Z" fill="#FBAE4A"/>
<path fill-rule="evenodd" clip-rule="evenodd" d="M12.9582 2.5127L13.3507 2.64344C26.4445 7.00446 37.8596 18.6044 42.756 31.6512L42.937 32.1334L42.5519 32.4755C42.1812 32.8047 41.7382 33.2873 41.1894 33.8851C40.8922 34.2088 40.564 34.5662 40.1995 34.9515C39.1956 36.0124 37.9775 37.2119 36.5649 38.2342C33.9586 40.1203 30.6231 41.4417 26.7261 40.149V46.8725H32.4071C34.3447 46.8725 35.6637 47.9592 36.5111 49.2545C37.3463 50.5311 37.7724 52.0712 37.9695 53.2061L38.122 54.0844H5.86715L5.93525 53.2718C5.95998 52.9768 5.97908 52.6757 5.99877 52.3653L6.00404 52.2823C6.02544 51.9458 6.0481 51.5994 6.0795 51.2579C6.14175 50.5809 6.24162 49.8789 6.45781 49.2449C6.67624 48.6044 7.02751 47.9916 7.61791 47.545C8.21256 47.0953 8.97231 46.8725 9.89819 46.8725H15.7067L17.9629 34.8127C10.3025 29.2884 6.41944 24.0667 5.63836 18.8935C4.84226 13.6209 7.30326 8.65235 11.6776 3.79964C11.9447 3.4238 12.2648 3.08114 12.6382 2.77501L12.9582 2.5127ZM10.6625 7.39498C7.85503 11.1942 6.55271 14.9021 7.12154 18.6696C7.82423 23.3235 11.4171 28.3227 19.2224 33.8697C21.2908 35.3397 23.6485 36.8433 26.3162 38.385C29.988 39.9994 33.1059 38.8858 35.6855 37.019C36.986 36.0779 38.1293 34.9569 39.11 33.9205C39.355 33.6616 39.5945 33.4025 39.8259 33.151C38.1404 33.2987 36.3596 33.067 34.5606 32.5551C31.8471 31.783 29.0419 30.3597 26.3608 28.5525C22.4365 25.9073 18.7296 22.4067 15.9089 18.8118C13.768 16.0834 12.1111 13.2671 11.2712 10.6983C10.9007 9.56486 10.68 8.44818 10.6625 7.39498ZM41.063 31.4305C39.2533 31.8813 37.1859 31.7426 34.9711 31.1124C32.5583 30.4258 30.0163 29.168 27.53 27.5292V17.5989H16.8659C14.9017 15.0477 13.4364 12.4937 12.697 10.2321C11.9304 7.88758 11.989 6.0117 12.8545 4.73447C13.0096 4.56317 13.1675 4.39171 13.328 4.2201C25.5229 8.45563 36.2226 19.2302 41.063 31.4305ZM18.0787 19.0989C20.356 21.7861 23.1119 24.3688 26.03 26.4897V19.0989H18.0787ZM25.2261 39.4867C23.0594 38.2248 21.0909 36.984 19.3114 35.7616L17.2327 46.8725H25.2261V39.4867ZM7.48787 52.5844H36.3033C36.0887 51.7455 35.753 50.8357 35.2558 50.0757C34.5896 49.0572 33.6852 48.3725 32.4071 48.3725H9.89819C9.2163 48.3725 8.79791 48.5333 8.5228 48.7414C8.24344 48.9527 8.03335 49.2721 7.87753 49.7291C7.71947 50.1926 7.63222 50.7534 7.5732 51.3952C7.54397 51.7131 7.52247 52.0401 7.50102 52.3775L7.49562 52.4626C7.49305 52.503 7.49047 52.5437 7.48787 52.5844Z" fill="#FBAE4A"/>
<path d="M19.3114 35.7617C21.0909 36.9841 23.0594 38.2249 25.2261 39.4868V46.8726H17.2327L19.3114 35.7617Z" fill="#FBAE4A"/>
<path fill-rule="evenodd" clip-rule="evenodd" d="M35.6921 1.0567C35.7778 0.65144 36.1757 0.392367 36.581 0.478041C40.7542 1.36028 43.5784 2.61546 45.5336 4.78269C47.478 6.93793 48.4659 9.89114 49.2214 13.9256C49.2976 14.3327 49.0294 14.7246 48.6223 14.8008C48.2151 14.8771 47.8233 14.6088 47.747 14.2017C47.0021 10.2236 46.0734 7.62031 44.4199 5.78747C42.7772 3.96663 40.3224 2.80216 36.2707 1.9456C35.8655 1.85993 35.6064 1.46195 35.6921 1.0567ZM34.0776 6.08983C34.1439 5.68095 34.529 5.40318 34.9379 5.46942C37.6352 5.90639 39.5861 6.58268 40.8706 7.97356C42.1596 9.36926 42.6476 11.3423 42.8018 14.0205C42.8256 14.4341 42.5097 14.7886 42.0961 14.8124C41.6826 14.8362 41.3281 14.5203 41.3043 14.1067C41.1548 11.5104 40.6893 9.98806 39.7687 8.99127C38.8436 7.98966 37.3288 7.37632 34.698 6.95012C34.2892 6.88387 34.0114 6.49871 34.0776 6.08983Z" fill="#FBAE4A"/>
<path d="M34.8192 14.0645C35.7072 14.0645 36.427 13.4251 36.427 12.6365C36.427 11.8478 35.7072 11.2085 34.8192 11.2085C33.9313 11.2085 33.2114 11.8478 33.2114 12.6365C33.2114 13.4251 33.9313 14.0645 34.8192 14.0645Z" fill="#FBAE4A"/>
<path fill-rule="evenodd" clip-rule="evenodd" d="M61.0681 53.9396V0H62.5681V53.9396H61.0681Z" fill="#FBAE4A"/>
<path d="M279.472 70.9092L292.122 80H0L12.9824 70.9092L0 61.8184H292.122L279.472 70.9092ZM89.5947 65.9902C88.8201 65.9902 88.1615 66.1818 87.6201 66.5645C87.0884 66.9471 86.6823 67.5167 86.4023 68.2725C86.1318 69.019 85.9961 69.9429 85.9961 71.0439C85.9961 72.6773 86.3049 73.9376 86.9209 74.8242C87.5369 75.7013 88.4282 76.1396 89.5947 76.1396C90.3786 76.1396 91.0364 75.9437 91.5684 75.5518C92.1003 75.1505 92.5018 74.5722 92.7725 73.8164C93.0524 73.0511 93.1924 72.1222 93.1924 71.0303C93.1924 69.3877 92.8844 68.137 92.2686 67.2783C91.6619 66.4197 90.7706 65.9903 89.5947 65.9902ZM110.003 69.0137C109.341 69.0137 108.748 69.1678 108.226 69.4756C107.712 69.7742 107.306 70.1899 107.008 70.7217C106.718 71.2537 106.573 71.8747 106.573 72.584C106.573 73.3119 106.723 73.9417 107.021 74.4736C107.329 75.0056 107.763 75.4167 108.323 75.7061C108.883 75.9954 109.551 76.1396 110.325 76.1396C110.689 76.1396 111.081 76.0933 111.501 76C111.93 75.8973 112.309 75.7434 112.636 75.5381C112.804 75.4355 112.92 75.3138 112.985 75.1738C113.06 75.0339 113.088 74.8982 113.069 74.7676C113.051 74.6278 112.995 74.5112 112.901 74.418C112.817 74.3247 112.701 74.2731 112.552 74.2637C112.402 74.245 112.229 74.2923 112.033 74.4043C111.763 74.5536 111.473 74.6603 111.165 74.7256C110.867 74.7815 110.596 74.8096 110.354 74.8096C109.654 74.8096 109.122 74.6232 108.758 74.25C108.476 73.946 108.308 73.5211 108.25 72.9756H112.481C112.696 72.9756 112.86 72.9336 112.972 72.8496C113.093 72.7563 113.153 72.6258 113.153 72.458C113.153 71.9262 113.079 71.4502 112.93 71.0303C112.79 70.6012 112.58 70.2371 112.3 69.9385C112.029 69.6399 111.698 69.4106 111.306 69.252C110.923 69.0933 110.488 69.0137 110.003 69.0137ZM146.875 69.0703C146.231 69.0703 145.662 69.2191 145.167 69.5176C144.682 69.8162 144.299 70.2318 144.019 70.7637C143.739 71.2863 143.599 71.903 143.599 72.6123C143.599 73.3402 143.739 73.9657 144.019 74.4883C144.308 75.0109 144.709 75.4167 145.223 75.7061C145.745 75.9861 146.366 76.126 147.085 76.126C147.496 76.126 147.911 76.0657 148.331 75.9443C148.751 75.823 149.115 75.6497 149.423 75.4258C149.544 75.3511 149.624 75.2628 149.661 75.1602C149.708 75.0575 149.716 74.9639 149.688 74.8799C149.67 74.7866 149.628 74.7122 149.562 74.6562C149.497 74.5909 149.409 74.5576 149.297 74.5576C149.194 74.5483 149.077 74.5859 148.946 74.6699C148.648 74.8658 148.34 75.0059 148.022 75.0898C147.715 75.1738 147.402 75.2158 147.085 75.2158C146.32 75.2158 145.727 74.9919 145.307 74.5439C144.937 74.1409 144.735 73.5714 144.698 72.8359H149.339C149.497 72.8359 149.619 72.8036 149.703 72.7383C149.787 72.6637 149.829 72.5515 149.829 72.4023C149.829 71.889 149.759 71.4263 149.619 71.0156C149.488 70.6051 149.292 70.2551 149.031 69.9658C148.779 69.6765 148.47 69.457 148.106 69.3076C147.743 69.1491 147.332 69.0703 146.875 69.0703ZM154.49 69.0703C153.977 69.0704 153.515 69.149 153.104 69.3076C152.703 69.4663 152.358 69.6998 152.068 70.0078C151.779 70.3064 151.56 70.6705 151.411 71.0996C151.262 71.5289 151.187 72.0145 151.187 72.5557C151.187 73.2649 151.318 73.8903 151.579 74.4316C151.85 74.9636 152.232 75.3791 152.727 75.6777C153.221 75.9763 153.809 76.1259 154.49 76.126C154.826 76.126 155.172 76.0743 155.526 75.9717C155.881 75.8597 156.208 75.6831 156.507 75.4404C156.6 75.3751 156.66 75.2998 156.688 75.2158C156.716 75.1225 156.716 75.0288 156.688 74.9355C156.67 74.8424 156.628 74.7678 156.562 74.7119C156.497 74.6467 156.417 74.6089 156.324 74.5996C156.231 74.5904 156.133 74.6237 156.03 74.6982C155.778 74.8848 155.526 75.0152 155.274 75.0898C155.032 75.1645 154.794 75.2021 154.561 75.2021C153.851 75.2021 153.305 74.9686 152.923 74.502C152.54 74.026 152.349 73.3822 152.349 72.5703C152.349 72.1503 152.395 71.7812 152.488 71.4639C152.591 71.1465 152.736 70.8807 152.923 70.666C153.109 70.4514 153.338 70.2878 153.608 70.1758C153.879 70.0545 154.197 69.9942 154.561 69.9941C154.794 69.9941 155.037 70.0318 155.289 70.1064C155.541 70.1811 155.788 70.3116 156.03 70.498C156.133 70.5726 156.231 70.6049 156.324 70.5957C156.427 70.5864 156.511 70.5539 156.576 70.498C156.641 70.4328 156.689 70.3583 156.717 70.2744C156.745 70.1811 156.745 70.0874 156.717 69.9941C156.689 69.9008 156.628 69.8212 156.534 69.7559C156.236 69.5041 155.905 69.3263 155.541 69.2236C155.177 69.121 154.826 69.0703 154.49 69.0703ZM167.273 69.0703C166.63 69.0703 166.06 69.2191 165.565 69.5176C165.08 69.8162 164.697 70.2318 164.417 70.7637C164.137 71.2863 163.997 71.903 163.997 72.6123C163.997 73.3402 164.137 73.9657 164.417 74.4883C164.706 75.0109 165.108 75.4167 165.621 75.7061C166.144 75.9861 166.765 76.126 167.483 76.126C167.894 76.126 168.31 76.0657 168.729 75.9443C169.149 75.823 169.513 75.6497 169.821 75.4258C169.943 75.3511 170.022 75.2628 170.06 75.1602C170.106 75.0575 170.115 74.9639 170.087 74.8799C170.068 74.7866 170.026 74.7122 169.961 74.6562C169.896 74.5909 169.807 74.5576 169.695 74.5576C169.593 74.5483 169.475 74.5859 169.345 74.6699C169.046 74.8658 168.738 75.0059 168.421 75.0898C168.113 75.1738 167.801 75.2158 167.483 75.2158C166.718 75.2158 166.125 74.9919 165.705 74.5439C165.336 74.1409 165.134 73.5714 165.097 72.8359H169.737C169.896 72.8359 170.018 72.8036 170.102 72.7383C170.185 72.6637 170.227 72.5515 170.228 72.4023C170.228 71.889 170.158 71.4263 170.018 71.0156C169.887 70.6051 169.691 70.2551 169.43 69.9658C169.178 69.6765 168.869 69.457 168.505 69.3076C168.141 69.1491 167.731 69.0703 167.273 69.0703ZM178.498 69.0703C177.985 69.0704 177.523 69.149 177.112 69.3076C176.711 69.4663 176.366 69.6998 176.076 70.0078C175.787 70.3064 175.568 70.6705 175.419 71.0996C175.27 71.5289 175.194 72.0145 175.194 72.5557C175.194 73.2649 175.326 73.8903 175.587 74.4316C175.858 74.9636 176.24 75.3791 176.734 75.6777C177.229 75.9763 177.817 76.1259 178.498 76.126C178.834 76.126 179.18 76.0743 179.534 75.9717C179.889 75.8597 180.216 75.6831 180.515 75.4404C180.608 75.3751 180.668 75.2998 180.696 75.2158C180.724 75.1225 180.724 75.0288 180.696 74.9355C180.678 74.8424 180.636 74.7678 180.57 74.7119C180.505 74.6467 180.425 74.6089 180.332 74.5996C180.239 74.5904 180.141 74.6237 180.038 74.6982C179.786 74.8848 179.534 75.0152 179.282 75.0898C179.04 75.1645 178.802 75.2021 178.568 75.2021C177.859 75.2021 177.313 74.9686 176.931 74.502C176.548 74.026 176.356 73.3822 176.356 72.5703C176.356 72.1503 176.403 71.7812 176.496 71.4639C176.599 71.1465 176.744 70.8807 176.931 70.666C177.117 70.4514 177.346 70.2878 177.616 70.1758C177.887 70.0545 178.204 69.9942 178.568 69.9941C178.802 69.9941 179.045 70.0318 179.297 70.1064C179.549 70.1811 179.796 70.3116 180.038 70.498C180.141 70.5726 180.239 70.6049 180.332 70.5957C180.435 70.5864 180.519 70.5539 180.584 70.498C180.649 70.4328 180.697 70.3583 180.725 70.2744C180.753 70.1811 180.753 70.0874 180.725 69.9941C180.697 69.9008 180.635 69.8212 180.542 69.7559C180.243 69.5041 179.913 69.3263 179.549 69.2236C179.185 69.121 178.834 69.0703 178.498 69.0703ZM196.228 69.0703C195.864 69.0703 195.48 69.1166 195.079 69.21C194.678 69.3033 194.272 69.4529 193.861 69.6582C193.749 69.7142 193.665 69.7886 193.609 69.8818C193.563 69.9751 193.544 70.0732 193.554 70.1758C193.563 70.2691 193.595 70.3531 193.651 70.4277C193.707 70.5023 193.782 70.554 193.875 70.582C193.968 70.6007 194.08 70.577 194.211 70.5117C194.575 70.3251 194.92 70.1905 195.247 70.1064C195.574 70.0224 195.901 69.9805 196.228 69.9805C196.759 69.9805 197.142 70.1108 197.375 70.3721C197.608 70.6241 197.726 71.0395 197.726 71.6182V72.0518H197.277C196.251 72.0518 195.438 72.113 194.841 72.2344C194.253 72.3557 193.829 72.5605 193.567 72.8496C193.315 73.1389 193.189 73.536 193.189 74.04C193.189 74.432 193.297 74.7862 193.512 75.1035C193.726 75.4208 194.015 75.6737 194.379 75.8604C194.752 76.0377 195.173 76.126 195.64 76.126C196.022 76.1259 196.367 76.0558 196.675 75.916C196.983 75.776 197.24 75.5801 197.445 75.3281C197.573 75.1782 197.675 75.0095 197.753 74.8232V75.5098C197.753 75.6964 197.8 75.8417 197.894 75.9443C197.987 76.0467 198.122 76.0976 198.299 76.0977C198.467 76.0977 198.594 76.047 198.678 75.9443C198.771 75.8417 198.817 75.6964 198.817 75.5098V71.7158C198.817 71.1094 198.724 70.615 198.537 70.2324C198.351 69.8405 198.066 69.5509 197.684 69.3643C197.301 69.1683 196.815 69.0703 196.228 69.0703ZM78.4424 66.1299C78.1904 66.1299 77.9935 66.1955 77.8535 66.3262C77.7231 66.4568 77.6582 66.6434 77.6582 66.8857C77.6582 67.1188 77.7231 67.301 77.8535 67.4316C77.9935 67.5623 78.1904 67.6279 78.4424 67.6279H82.6504L78.75 74.9639C78.638 75.1784 78.5961 75.3745 78.624 75.5518C78.652 75.7198 78.736 75.8553 78.876 75.958C79.016 76.0607 79.1935 76.1123 79.4082 76.1123C79.6601 76.1123 79.8658 76.065 80.0244 75.9717C80.1921 75.8784 80.3271 75.7293 80.4297 75.5244L84.4062 67.9219C84.4995 67.7446 84.5739 67.5809 84.6299 67.4316C84.6858 67.273 84.7139 67.091 84.7139 66.8857C84.7138 66.6432 84.6342 66.4568 84.4756 66.3262C84.317 66.1957 84.1121 66.1299 83.8604 66.1299H78.4424ZM100.418 69.1543C100.101 69.1543 99.8575 69.2382 99.6895 69.4062C99.5217 69.5742 99.4375 69.8168 99.4375 70.1338V71.2676C99.4375 71.7249 99.4192 72.1317 99.3818 72.4863C99.3445 72.8409 99.2842 73.1586 99.2002 73.4385C99.1162 73.709 98.9989 73.9418 98.8496 74.1377C98.7003 74.3337 98.5087 74.4973 98.2754 74.6279C98.0889 74.7306 97.9628 74.8566 97.8975 75.0059C97.8322 75.1551 97.8139 75.3092 97.8418 75.4678C97.8698 75.6171 97.9354 75.7484 98.0381 75.8604C98.1499 75.9628 98.285 76.033 98.4434 76.0703C98.6114 76.1076 98.7942 76.084 98.9902 76C99.354 75.8414 99.6665 75.6313 99.9277 75.3701C100.189 75.1089 100.399 74.7868 100.558 74.4043C100.726 74.0216 100.847 73.5729 100.922 73.0596C101.006 72.5464 101.048 71.968 101.048 71.3242V70.5264H103.204V75.2158C103.204 75.505 103.279 75.729 103.428 75.8877C103.577 76.037 103.792 76.1123 104.072 76.1123C104.352 76.1122 104.567 76.037 104.716 75.8877C104.874 75.729 104.954 75.5051 104.954 75.2158V70.1338C104.954 69.8167 104.87 69.5742 104.702 69.4062C104.534 69.2382 104.291 69.1543 103.974 69.1543H100.418ZM114.45 69.1543C114.217 69.1544 114.031 69.2147 113.891 69.3359C113.76 69.4572 113.694 69.6253 113.694 69.8398C113.694 70.297 113.947 70.5262 114.45 70.5264H116.158V75.2158C116.158 75.5051 116.234 75.729 116.383 75.8877C116.541 76.037 116.761 76.1123 117.041 76.1123C117.33 76.1122 117.545 76.037 117.685 75.8877C117.834 75.729 117.908 75.5051 117.908 75.2158V70.5264H119.616C119.859 70.5264 120.046 70.4703 120.177 70.3584C120.307 70.2371 120.373 70.0638 120.373 69.8398C120.373 69.3826 120.12 69.1543 119.616 69.1543H114.45ZM141.258 69.0977C141.155 69.0977 141.067 69.117 140.992 69.1543C140.918 69.1823 140.852 69.2287 140.796 69.2939C140.74 69.3499 140.694 69.42 140.656 69.5039L138.276 73.7461L135.896 69.5039C135.859 69.4199 135.812 69.3499 135.756 69.2939C135.7 69.2288 135.635 69.1823 135.561 69.1543C135.486 69.117 135.392 69.0977 135.28 69.0977C135.168 69.0977 135.075 69.1213 135 69.168C134.925 69.2146 134.869 69.2847 134.832 69.3779C134.795 69.4619 134.776 69.5695 134.776 69.7002V75.5518C134.776 75.7198 134.818 75.8553 134.902 75.958C134.996 76.0513 135.122 76.0977 135.28 76.0977C135.439 76.0977 135.561 76.0513 135.645 75.958C135.738 75.8554 135.784 75.7197 135.784 75.5518V71.0625L137.856 74.6982C137.903 74.7634 137.954 74.824 138.01 74.8799C138.075 74.9359 138.164 74.9639 138.276 74.9639C138.379 74.9638 138.463 74.9402 138.528 74.8936C138.594 74.8376 138.645 74.7728 138.683 74.6982L140.754 71.0635V75.5518C140.754 75.7197 140.796 75.8554 140.88 75.958C140.973 76.0513 141.099 76.0976 141.258 76.0977C141.426 76.0977 141.553 76.0513 141.637 75.958C141.721 75.8554 141.763 75.7196 141.763 75.5518V69.7002C141.763 69.495 141.721 69.3453 141.637 69.252C141.553 69.1493 141.426 69.0977 141.258 69.0977ZM157.58 69.1963C157.412 69.1963 157.281 69.2383 157.188 69.3223C157.094 69.3968 157.048 69.5039 157.048 69.6436C157.048 69.9516 157.225 70.1064 157.58 70.1064H159.624V75.5098C159.624 75.6964 159.676 75.8417 159.778 75.9443C159.881 76.0467 160.021 76.0977 160.198 76.0977C160.394 76.0976 160.534 76.0469 160.618 75.9443C160.711 75.8417 160.758 75.6964 160.758 75.5098V70.1064H162.815C162.983 70.1064 163.109 70.0686 163.193 69.9941C163.287 69.9101 163.334 69.7929 163.334 69.6436C163.334 69.3452 163.161 69.1963 162.815 69.1963H157.58ZM207.512 69.0977C207.409 69.0977 207.321 69.117 207.246 69.1543C207.171 69.1823 207.106 69.2287 207.05 69.2939C206.994 69.3499 206.947 69.42 206.91 69.5039L204.53 73.7461L202.15 69.5039C202.113 69.4199 202.066 69.3499 202.01 69.2939C201.954 69.2288 201.889 69.1823 201.814 69.1543C201.74 69.117 201.646 69.0977 201.534 69.0977C201.422 69.0977 201.329 69.1213 201.254 69.168C201.179 69.2146 201.123 69.2847 201.086 69.3779C201.049 69.4619 201.03 69.5695 201.03 69.7002V75.5518C201.03 75.7198 201.072 75.8553 201.156 75.958C201.25 76.0513 201.376 76.0977 201.534 76.0977C201.693 76.0977 201.814 76.0513 201.898 75.958C201.992 75.8554 202.038 75.7197 202.038 75.5518V71.0625L204.11 74.6982C204.157 74.7634 204.208 74.824 204.264 74.8799C204.329 74.9359 204.418 74.9639 204.53 74.9639C204.633 74.9638 204.717 74.9402 204.782 74.8936C204.847 74.8376 204.899 74.7728 204.937 74.6982L207.008 71.0635V75.5518C207.008 75.7197 207.05 75.8554 207.134 75.958C207.227 76.0513 207.353 76.0976 207.512 76.0977C207.68 76.0977 207.807 76.0513 207.891 75.958C207.975 75.8554 208.017 75.7196 208.017 75.5518V69.7002C208.017 69.495 207.975 69.3453 207.891 69.252C207.807 69.1493 207.68 69.0977 207.512 69.0977ZM215.677 69.0977C215.518 69.0977 215.388 69.1355 215.285 69.21C215.182 69.2753 215.093 69.3592 215.019 69.4619L211.295 74.4512V69.6582C211.295 69.4715 211.248 69.3316 211.154 69.2383C211.07 69.145 210.944 69.0977 210.776 69.0977C210.618 69.0977 210.492 69.145 210.398 69.2383C210.305 69.3316 210.259 69.4717 210.259 69.6582V75.4824C210.259 75.6222 210.277 75.7388 210.314 75.832C210.361 75.9254 210.422 75.991 210.497 76.0283C210.581 76.0748 210.674 76.0976 210.776 76.0977C210.944 76.0977 211.076 76.061 211.169 75.9863C211.272 75.9117 211.356 75.8276 211.421 75.7344L215.158 70.7285V75.5381C215.158 75.7154 215.201 75.8554 215.285 75.958C215.378 76.0512 215.509 76.0977 215.677 76.0977C215.845 76.0976 215.971 76.0513 216.055 75.958C216.148 75.8554 216.194 75.7154 216.194 75.5381V69.7002C216.194 69.5509 216.172 69.4336 216.125 69.3496C216.088 69.2566 216.031 69.1916 215.957 69.1543C215.882 69.117 215.789 69.0977 215.677 69.0977ZM127.708 69.1963C127.522 69.1963 127.377 69.2472 127.274 69.3496C127.172 69.4523 127.12 69.5975 127.12 69.7842V75.4121C127.12 75.5987 127.172 75.7431 127.274 75.8457C127.377 75.9483 127.521 76 127.708 76H130.55C131.334 76 131.941 75.8321 132.37 75.4961C132.799 75.1601 133.014 74.7027 133.014 74.124C133.014 73.6294 132.846 73.2279 132.51 72.9199C132.288 72.7104 132.007 72.5688 131.668 72.4932C131.923 72.4013 132.144 72.2644 132.328 72.0801C132.636 71.7815 132.79 71.4175 132.79 70.9883C132.79 70.5963 132.706 70.2691 132.538 70.0078C132.37 69.7372 132.113 69.5369 131.768 69.4062C131.422 69.2664 130.979 69.1963 130.438 69.1963H127.708ZM186.415 69.1963C186.229 69.1963 186.084 69.2472 185.981 69.3496C185.879 69.4523 185.827 69.5975 185.827 69.7842V75.4121C185.827 75.5987 185.879 75.7431 185.981 75.8457C186.084 75.9483 186.228 76 186.415 76H189.257C190.041 76 190.648 75.8321 191.077 75.4961C191.506 75.1601 191.721 74.7027 191.721 74.124C191.721 73.6294 191.553 73.2279 191.217 72.9199C190.995 72.7104 190.714 72.5688 190.375 72.4932C190.63 72.4013 190.851 72.2644 191.035 72.0801C191.343 71.7815 191.497 71.4175 191.497 70.9883C191.497 70.5963 191.413 70.2691 191.245 70.0078C191.077 69.7372 190.82 69.5369 190.475 69.4062C190.129 69.2664 189.686 69.1963 189.146 69.1963H186.415ZM197.726 73.2139C197.726 73.6152 197.642 73.9703 197.474 74.2783C197.315 74.5861 197.091 74.8286 196.802 75.0059C196.522 75.1832 196.195 75.2725 195.821 75.2725C195.364 75.2725 195 75.1507 194.729 74.9082C194.468 74.6655 194.337 74.3524 194.337 73.9697C194.337 73.6619 194.421 73.4238 194.589 73.2559C194.766 73.0879 195.07 72.9716 195.499 72.9062C195.938 72.8316 196.535 72.794 197.291 72.7939H197.726V73.2139ZM130.508 72.9199C130.965 72.9199 131.315 73.018 131.558 73.2139C131.81 73.4099 131.936 73.695 131.936 74.0684C131.935 74.4415 131.81 74.7303 131.558 74.9355C131.315 75.1315 130.965 75.2305 130.508 75.2305H128.198V72.9199H130.508ZM189.215 72.9199C189.672 72.9199 190.022 73.018 190.265 73.2139C190.517 73.4099 190.643 73.695 190.643 74.0684C190.642 74.4415 190.517 74.7303 190.265 74.9355C190.022 75.1315 189.672 75.2305 189.215 75.2305H186.905V72.9199H189.215ZM89.5947 67.46C90.2293 67.46 90.6955 67.7452 90.9941 68.3145C91.3021 68.8745 91.4561 69.7797 91.4561 71.0303C91.456 72.2808 91.3021 73.2001 90.9941 73.7881C90.6955 74.3759 90.2292 74.6699 89.5947 74.6699C88.9694 74.6699 88.5023 74.3761 88.1943 73.7881C87.8864 73.2001 87.7324 72.2808 87.7324 71.0303C87.7324 69.7799 87.8865 68.8745 88.1943 68.3145C88.5023 67.7451 88.9694 67.46 89.5947 67.46ZM130.382 69.9658C130.802 69.9658 131.129 70.0594 131.362 70.2461C131.605 70.4327 131.726 70.6988 131.726 71.0439C131.726 71.3893 131.605 71.6604 131.362 71.8564C131.129 72.0524 130.802 72.1504 130.382 72.1504H128.198V69.9658H130.382ZM189.089 69.9658C189.509 69.9658 189.836 70.0594 190.069 70.2461C190.312 70.4327 190.433 70.6988 190.433 71.0439C190.433 71.3893 190.312 71.6604 190.069 71.8564C189.836 72.0524 189.509 72.1504 189.089 72.1504H186.905V69.9658H189.089ZM146.902 69.9102C147.332 69.9102 147.687 70.0038 147.967 70.1904C148.256 70.3771 148.476 70.6474 148.625 71.002C148.756 71.3048 148.826 71.6689 148.842 72.0938H144.71C144.743 71.7468 144.82 71.4342 144.942 71.1562C145.11 70.7643 145.358 70.4608 145.685 70.2461C146.02 70.0222 146.427 69.9102 146.902 69.9102ZM167.301 69.9102C167.73 69.9102 168.085 70.0038 168.365 70.1904C168.654 70.3771 168.874 70.6474 169.023 71.002C169.154 71.3048 169.224 71.6689 169.24 72.0938H165.108C165.142 71.7468 165.219 71.4342 165.341 71.1562C165.509 70.7643 165.756 70.4608 166.083 70.2461C166.419 70.0222 166.825 69.9102 167.301 69.9102ZM110.073 70.2041C110.428 70.2041 110.722 70.2837 110.955 70.4424C111.198 70.5916 111.38 70.8105 111.501 71.0996C111.61 71.3404 111.671 71.6301 111.689 71.9678H108.256C108.288 71.7029 108.345 71.4645 108.436 71.2539C108.585 70.918 108.795 70.6617 109.065 70.4844C109.345 70.2977 109.681 70.2041 110.073 70.2041Z" fill="#FBAE4A"/>
</g>
<defs>
<clipPath id="clip0_199_32">
<rect width="293" height="80" fill="white"/>
</clipPath>
</defs>
</svg>
