<svg width="293" height="80" viewBox="0 0 293 80" fill="none" xmlns="http://www.w3.org/2000/svg">
<g clip-path="url(#clip0_206_2)">
<path d="M16.3293 47.6225H18.1818H25.976V39.0546C23.2771 37.4962 20.8875 35.9732 18.7879 34.481L16.3293 47.6225Z" fill="white"/>
<path d="M42.0539 31.9147C37.2306 19.0628 25.9761 7.63893 13.1138 3.35498C12.8228 3.65964 12.5397 3.9641 12.2648 4.2684C10.088 7.39385 12.2818 12.9742 16.499 18.3488H26.78V27.9306C32.0523 31.4844 37.7122 33.4571 42.0539 31.9147Z" fill="white"/>
<path fill-rule="evenodd" clip-rule="evenodd" d="M12.9582 2.5127L13.3507 2.64344C26.4445 7.00446 37.8596 18.6044 42.756 31.6512L42.937 32.1334L42.5519 32.4755C42.1812 32.8047 41.7382 33.2873 41.1894 33.8851C40.8922 34.2088 40.564 34.5662 40.1995 34.9515C39.1956 36.0124 37.9775 37.2119 36.5649 38.2342C33.9586 40.1203 30.6231 41.4417 26.7261 40.149V46.8725H32.4071C34.3447 46.8725 35.6637 47.9592 36.5111 49.2545C37.3463 50.5311 37.7724 52.0712 37.9695 53.2061L38.122 54.0844H5.86715L5.93525 53.2718C5.95998 52.9768 5.97908 52.6757 5.99877 52.3653L6.00404 52.2823C6.02544 51.9458 6.0481 51.5994 6.0795 51.2579C6.14175 50.5809 6.24162 49.8789 6.45781 49.2449C6.67624 48.6044 7.02751 47.9916 7.61791 47.545C8.21256 47.0953 8.97231 46.8725 9.89819 46.8725H15.7067L17.9629 34.8127C10.3025 29.2884 6.41944 24.0667 5.63836 18.8935C4.84226 13.6209 7.30326 8.65236 11.6776 3.79964C11.9447 3.4238 12.2648 3.08114 12.6382 2.77501L12.9582 2.5127ZM10.6625 7.39498C7.85503 11.1942 6.55271 14.9021 7.12154 18.6696C7.82423 23.3235 11.4171 28.3227 19.2224 33.8697C21.2908 35.3397 23.6485 36.8433 26.3162 38.385C29.988 39.9994 33.1059 38.8858 35.6855 37.019C36.986 36.0779 38.1293 34.9569 39.11 33.9205C39.355 33.6616 39.5945 33.4025 39.8259 33.151C38.1404 33.2987 36.3596 33.067 34.5606 32.5551C31.8471 31.783 29.0419 30.3597 26.3608 28.5525C22.4365 25.9073 18.7296 22.4067 15.9089 18.8118C13.768 16.0834 12.1111 13.2671 11.2712 10.6983C10.9007 9.56486 10.68 8.44818 10.6625 7.39498ZM41.063 31.4305C39.2533 31.8813 37.1859 31.7426 34.9711 31.1124C32.5583 30.4258 30.0163 29.168 27.53 27.5292V17.5989H16.8659C14.9017 15.0477 13.4364 12.4937 12.697 10.2321C11.9304 7.88758 11.989 6.0117 12.8545 4.73447C13.0096 4.56317 13.1675 4.39171 13.328 4.2201C25.5229 8.45563 36.2226 19.2302 41.063 31.4305ZM18.0787 19.0989C20.356 21.7861 23.1119 24.3688 26.03 26.4897V19.0989H18.0787ZM25.2261 39.4867C23.0594 38.2248 21.0909 36.984 19.3114 35.7616L17.2327 46.8725H25.2261V39.4867ZM7.48787 52.5844H36.3033C36.0887 51.7455 35.753 50.8357 35.2558 50.0757C34.5896 49.0572 33.6852 48.3725 32.4071 48.3725H9.89819C9.2163 48.3725 8.79791 48.5333 8.5228 48.7414C8.24344 48.9527 8.03335 49.2721 7.87753 49.7291C7.71947 50.1926 7.63222 50.7534 7.5732 51.3952C7.54397 51.7131 7.52247 52.0401 7.50102 52.3775L7.49562 52.4626C7.49305 52.503 7.49047 52.5437 7.48787 52.5844Z" fill="white"/>
<path d="M19.3114 35.7617C21.0909 36.9841 23.0594 38.2249 25.2261 39.4868V46.8726H17.2327L19.3114 35.7617Z" fill="white"/>
<path fill-rule="evenodd" clip-rule="evenodd" d="M35.6921 1.0567C35.7778 0.65144 36.1757 0.392367 36.581 0.478041C40.7542 1.36028 43.5784 2.61546 45.5336 4.78269C47.478 6.93793 48.4659 9.89114 49.2214 13.9256C49.2976 14.3327 49.0294 14.7246 48.6223 14.8008C48.2151 14.8771 47.8233 14.6088 47.747 14.2017C47.0021 10.2236 46.0734 7.62031 44.4199 5.78747C42.7772 3.96663 40.3224 2.80216 36.2707 1.9456C35.8655 1.85993 35.6064 1.46195 35.6921 1.0567ZM34.0776 6.08983C34.1439 5.68095 34.529 5.40318 34.9379 5.46942C37.6352 5.90639 39.5861 6.58268 40.8706 7.97356C42.1596 9.36926 42.6476 11.3423 42.8018 14.0205C42.8256 14.4341 42.5097 14.7886 42.0961 14.8124C41.6826 14.8362 41.3281 14.5203 41.3043 14.1067C41.1548 11.5104 40.6893 9.98806 39.7687 8.99127C38.8436 7.98966 37.3288 7.37632 34.698 6.95012C34.2892 6.88387 34.0114 6.49871 34.0776 6.08983Z" fill="white"/>
<path d="M34.8192 14.0645C35.7072 14.0645 36.427 13.4251 36.427 12.6365C36.427 11.8478 35.7072 11.2085 34.8192 11.2085C33.9313 11.2085 33.2114 11.8478 33.2114 12.6365C33.2114 13.4251 33.9313 14.0645 34.8192 14.0645Z" fill="white"/>
<path fill-rule="evenodd" clip-rule="evenodd" d="M61.0681 53.9396V0H62.5681V53.9396H61.0681Z" fill="white"/>
<path d="M279.472 70.9092L292.122 80H0L12.9824 70.9092L0 61.8184H292.122L279.472 70.9092ZM89.5947 65.9902C88.8201 65.9902 88.1615 66.1818 87.6201 66.5645C87.0884 66.9471 86.6823 67.5167 86.4023 68.2725C86.1318 69.019 85.9961 69.9429 85.9961 71.0439C85.9961 72.6773 86.3049 73.9376 86.9209 74.8242C87.5369 75.7013 88.4282 76.1396 89.5947 76.1396C90.3786 76.1396 91.0364 75.9437 91.5684 75.5518C92.1003 75.1505 92.5018 74.5722 92.7725 73.8164C93.0524 73.0511 93.1924 72.1222 93.1924 71.0303C93.1924 69.3877 92.8844 68.137 92.2686 67.2783C91.6619 66.4197 90.7706 65.9903 89.5947 65.9902ZM110.003 69.0137C109.341 69.0137 108.748 69.1678 108.226 69.4756C107.712 69.7742 107.306 70.1899 107.008 70.7217C106.718 71.2537 106.573 71.8747 106.573 72.584C106.573 73.3119 106.723 73.9417 107.021 74.4736C107.329 75.0056 107.763 75.4167 108.323 75.7061C108.883 75.9954 109.551 76.1396 110.325 76.1396C110.689 76.1396 111.081 76.0933 111.501 76C111.93 75.8973 112.309 75.7434 112.636 75.5381C112.804 75.4355 112.92 75.3138 112.985 75.1738C113.06 75.0339 113.088 74.8982 113.069 74.7676C113.051 74.6278 112.995 74.5112 112.901 74.418C112.817 74.3247 112.701 74.2731 112.552 74.2637C112.402 74.245 112.229 74.2923 112.033 74.4043C111.763 74.5536 111.473 74.6603 111.165 74.7256C110.867 74.7815 110.596 74.8096 110.354 74.8096C109.654 74.8096 109.122 74.6232 108.758 74.25C108.476 73.946 108.308 73.5211 108.25 72.9756H112.481C112.696 72.9756 112.86 72.9336 112.972 72.8496C113.093 72.7563 113.153 72.6258 113.153 72.458C113.153 71.9262 113.079 71.4502 112.93 71.0303C112.79 70.6012 112.58 70.2371 112.3 69.9385C112.029 69.6399 111.698 69.4106 111.306 69.252C110.923 69.0933 110.488 69.0137 110.003 69.0137ZM146.875 69.0703C146.231 69.0703 145.662 69.2191 145.167 69.5176C144.682 69.8162 144.299 70.2318 144.019 70.7637C143.739 71.2863 143.599 71.903 143.599 72.6123C143.599 73.3402 143.739 73.9657 144.019 74.4883C144.308 75.0109 144.709 75.4167 145.223 75.7061C145.745 75.9861 146.366 76.126 147.085 76.126C147.496 76.126 147.911 76.0656 148.331 75.9443C148.751 75.823 149.115 75.6497 149.423 75.4258C149.544 75.3511 149.624 75.2628 149.661 75.1602C149.708 75.0575 149.716 74.9639 149.688 74.8799C149.67 74.7866 149.628 74.7122 149.562 74.6562C149.497 74.5909 149.409 74.5576 149.297 74.5576C149.194 74.5483 149.077 74.5859 148.946 74.6699C148.648 74.8658 148.34 75.0059 148.022 75.0898C147.715 75.1738 147.402 75.2158 147.085 75.2158C146.32 75.2158 145.727 74.9919 145.307 74.5439C144.937 74.1409 144.735 73.5714 144.698 72.8359H149.339C149.497 72.8359 149.619 72.8036 149.703 72.7383C149.787 72.6637 149.829 72.5515 149.829 72.4023C149.829 71.889 149.759 71.4263 149.619 71.0156C149.488 70.6051 149.292 70.2551 149.031 69.9658C148.779 69.6765 148.47 69.457 148.106 69.3076C147.743 69.1491 147.332 69.0703 146.875 69.0703ZM154.49 69.0703C153.977 69.0704 153.515 69.149 153.104 69.3076C152.703 69.4663 152.358 69.6998 152.068 70.0078C151.779 70.3064 151.56 70.6705 151.411 71.0996C151.262 71.5289 151.187 72.0145 151.187 72.5557C151.187 73.2649 151.318 73.8903 151.579 74.4316C151.85 74.9636 152.232 75.3791 152.727 75.6777C153.221 75.9763 153.809 76.1259 154.49 76.126C154.826 76.126 155.172 76.0743 155.526 75.9717C155.881 75.8597 156.208 75.6831 156.507 75.4404C156.6 75.3751 156.66 75.2998 156.688 75.2158C156.716 75.1225 156.716 75.0288 156.688 74.9355C156.67 74.8424 156.628 74.7678 156.562 74.7119C156.497 74.6467 156.417 74.6089 156.324 74.5996C156.231 74.5904 156.133 74.6237 156.03 74.6982C155.778 74.8848 155.526 75.0152 155.274 75.0898C155.032 75.1645 154.794 75.2021 154.561 75.2021C153.851 75.2021 153.305 74.9686 152.923 74.502C152.54 74.026 152.349 73.3822 152.349 72.5703C152.349 72.1503 152.395 71.7812 152.488 71.4639C152.591 71.1465 152.736 70.8807 152.923 70.666C153.109 70.4514 153.338 70.2878 153.608 70.1758C153.879 70.0545 154.197 69.9942 154.561 69.9941C154.794 69.9941 155.037 70.0318 155.289 70.1064C155.541 70.1811 155.788 70.3116 156.03 70.498C156.133 70.5726 156.231 70.6049 156.324 70.5957C156.427 70.5864 156.511 70.5539 156.576 70.498C156.641 70.4328 156.689 70.3583 156.717 70.2744C156.745 70.1811 156.745 70.0874 156.717 69.9941C156.689 69.9008 156.628 69.8212 156.534 69.7559C156.236 69.5041 155.905 69.3263 155.541 69.2236C155.177 69.121 154.826 69.0703 154.49 69.0703ZM167.273 69.0703C166.63 69.0703 166.06 69.2191 165.565 69.5176C165.08 69.8162 164.697 70.2318 164.417 70.7637C164.137 71.2863 163.997 71.903 163.997 72.6123C163.997 73.3402 164.137 73.9657 164.417 74.4883C164.706 75.0109 165.108 75.4167 165.621 75.7061C166.144 75.9861 166.765 76.126 167.483 76.126C167.894 76.126 168.31 76.0656 168.729 75.9443C169.149 75.823 169.513 75.6497 169.821 75.4258C169.943 75.3511 170.022 75.2628 170.06 75.1602C170.106 75.0575 170.115 74.9639 170.087 74.8799C170.068 74.7866 170.026 74.7122 169.961 74.6562C169.896 74.5909 169.807 74.5576 169.695 74.5576C169.593 74.5483 169.475 74.5859 169.345 74.6699C169.046 74.8658 168.738 75.0059 168.421 75.0898C168.113 75.1738 167.801 75.2158 167.483 75.2158C166.718 75.2158 166.125 74.9919 165.705 74.5439C165.336 74.1409 165.134 73.5714 165.097 72.8359H169.737C169.896 72.8359 170.018 72.8036 170.102 72.7383C170.185 72.6637 170.227 72.5515 170.228 72.4023C170.228 71.889 170.158 71.4263 170.018 71.0156C169.887 70.6051 169.691 70.2551 169.43 69.9658C169.178 69.6765 168.869 69.457 168.505 69.3076C168.141 69.1491 167.73 69.0703 167.273 69.0703ZM178.498 69.0703C177.985 69.0704 177.523 69.149 177.112 69.3076C176.711 69.4663 176.366 69.6998 176.076 70.0078C175.787 70.3064 175.568 70.6705 175.419 71.0996C175.27 71.5289 175.194 72.0145 175.194 72.5557C175.194 73.2649 175.326 73.8903 175.587 74.4316C175.858 74.9636 176.24 75.3791 176.734 75.6777C177.229 75.9763 177.817 76.1259 178.498 76.126C178.834 76.126 179.18 76.0743 179.534 75.9717C179.889 75.8597 180.216 75.6831 180.515 75.4404C180.608 75.3751 180.668 75.2998 180.696 75.2158C180.724 75.1225 180.724 75.0288 180.696 74.9355C180.678 74.8424 180.636 74.7678 180.57 74.7119C180.505 74.6467 180.425 74.6089 180.332 74.5996C180.239 74.5904 180.141 74.6237 180.038 74.6982C179.786 74.8848 179.534 75.0152 179.282 75.0898C179.04 75.1645 178.802 75.2021 178.568 75.2021C177.859 75.2021 177.313 74.9686 176.931 74.502C176.548 74.026 176.356 73.3822 176.356 72.5703C176.356 72.1503 176.403 71.7812 176.496 71.4639C176.599 71.1465 176.744 70.8807 176.931 70.666C177.117 70.4514 177.346 70.2878 177.616 70.1758C177.887 70.0545 178.204 69.9942 178.568 69.9941C178.802 69.9941 179.045 70.0318 179.297 70.1064C179.549 70.1811 179.796 70.3116 180.038 70.498C180.141 70.5726 180.239 70.6049 180.332 70.5957C180.435 70.5864 180.519 70.5539 180.584 70.498C180.649 70.4328 180.697 70.3583 180.725 70.2744C180.753 70.1811 180.753 70.0874 180.725 69.9941C180.697 69.9008 180.635 69.8212 180.542 69.7559C180.243 69.5041 179.913 69.3263 179.549 69.2236C179.185 69.121 178.834 69.0703 178.498 69.0703ZM196.228 69.0703C195.864 69.0703 195.48 69.1166 195.079 69.21C194.678 69.3033 194.272 69.4529 193.861 69.6582C193.749 69.7142 193.665 69.7886 193.609 69.8818C193.563 69.9751 193.544 70.0732 193.554 70.1758C193.563 70.2691 193.595 70.3531 193.651 70.4277C193.707 70.5023 193.782 70.554 193.875 70.582C193.968 70.6007 194.08 70.577 194.211 70.5117C194.575 70.3251 194.92 70.1905 195.247 70.1064C195.574 70.0224 195.901 69.9805 196.228 69.9805C196.759 69.9805 197.142 70.1108 197.375 70.3721C197.608 70.6241 197.726 71.0395 197.726 71.6182V72.0518H197.277C196.251 72.0518 195.438 72.113 194.841 72.2344C194.253 72.3557 193.829 72.5605 193.567 72.8496C193.315 73.1389 193.189 73.536 193.189 74.04C193.189 74.432 193.297 74.7862 193.512 75.1035C193.726 75.4208 194.015 75.6737 194.379 75.8604C194.752 76.0377 195.173 76.126 195.64 76.126C196.022 76.1259 196.367 76.0558 196.675 75.916C196.983 75.776 197.24 75.5801 197.445 75.3281C197.573 75.1782 197.675 75.0095 197.753 74.8232V75.5098C197.753 75.6964 197.8 75.8417 197.894 75.9443C197.987 76.0467 198.122 76.0976 198.299 76.0977C198.467 76.0977 198.594 76.047 198.678 75.9443C198.771 75.8417 198.817 75.6964 198.817 75.5098V71.7158C198.817 71.1094 198.724 70.615 198.537 70.2324C198.35 69.8405 198.066 69.5509 197.684 69.3643C197.301 69.1683 196.815 69.0703 196.228 69.0703ZM78.4424 66.1299C78.1904 66.1299 77.9935 66.1955 77.8535 66.3262C77.7231 66.4568 77.6582 66.6434 77.6582 66.8857C77.6582 67.1188 77.7231 67.301 77.8535 67.4316C77.9935 67.5623 78.1904 67.6279 78.4424 67.6279H82.6504L78.75 74.9639C78.638 75.1784 78.5961 75.3745 78.624 75.5518C78.652 75.7198 78.736 75.8553 78.876 75.958C79.016 76.0607 79.1935 76.1123 79.4082 76.1123C79.6601 76.1123 79.8658 76.065 80.0244 75.9717C80.1921 75.8784 80.3271 75.7293 80.4297 75.5244L84.4062 67.9219C84.4995 67.7446 84.5739 67.5809 84.6299 67.4316C84.6858 67.273 84.7139 67.091 84.7139 66.8857C84.7138 66.6432 84.6342 66.4568 84.4756 66.3262C84.317 66.1957 84.1121 66.1299 83.8604 66.1299H78.4424ZM100.418 69.1543C100.101 69.1543 99.8575 69.2382 99.6895 69.4062C99.5217 69.5742 99.4375 69.8168 99.4375 70.1338V71.2676C99.4375 71.7249 99.4192 72.1317 99.3818 72.4863C99.3445 72.8409 99.2842 73.1586 99.2002 73.4385C99.1162 73.709 98.9989 73.9418 98.8496 74.1377C98.7003 74.3337 98.5087 74.4973 98.2754 74.6279C98.0889 74.7306 97.9628 74.8566 97.8975 75.0059C97.8322 75.1551 97.8139 75.3092 97.8418 75.4678C97.8698 75.6171 97.9354 75.7484 98.0381 75.8604C98.1499 75.9628 98.285 76.033 98.4434 76.0703C98.6114 76.1076 98.7942 76.084 98.9902 76C99.354 75.8414 99.6665 75.6313 99.9277 75.3701C100.189 75.1089 100.399 74.7868 100.558 74.4043C100.726 74.0216 100.847 73.5729 100.922 73.0596C101.006 72.5464 101.048 71.968 101.048 71.3242V70.5264H103.204V75.2158C103.204 75.505 103.279 75.729 103.428 75.8877C103.577 76.037 103.792 76.1123 104.072 76.1123C104.352 76.1122 104.567 76.037 104.716 75.8877C104.874 75.729 104.954 75.5051 104.954 75.2158V70.1338C104.954 69.8167 104.87 69.5742 104.702 69.4062C104.534 69.2382 104.291 69.1543 103.974 69.1543H100.418ZM114.45 69.1543C114.217 69.1544 114.031 69.2147 113.891 69.3359C113.76 69.4572 113.694 69.6253 113.694 69.8398C113.694 70.297 113.947 70.5262 114.45 70.5264H116.158V75.2158C116.158 75.5051 116.234 75.729 116.383 75.8877C116.541 76.037 116.761 76.1123 117.041 76.1123C117.33 76.1122 117.545 76.037 117.685 75.8877C117.834 75.729 117.908 75.5051 117.908 75.2158V70.5264H119.616C119.859 70.5264 120.046 70.4703 120.177 70.3584C120.307 70.2371 120.373 70.0638 120.373 69.8398C120.373 69.3826 120.12 69.1543 119.616 69.1543H114.45ZM141.258 69.0977C141.155 69.0977 141.067 69.117 140.992 69.1543C140.918 69.1823 140.852 69.2287 140.796 69.2939C140.74 69.3499 140.694 69.42 140.656 69.5039L138.276 73.7461L135.896 69.5039C135.859 69.4199 135.812 69.3499 135.756 69.2939C135.7 69.2288 135.635 69.1823 135.561 69.1543C135.486 69.117 135.392 69.0977 135.28 69.0977C135.168 69.0977 135.075 69.1213 135 69.168C134.925 69.2146 134.869 69.2847 134.832 69.3779C134.795 69.4619 134.776 69.5695 134.776 69.7002V75.5518C134.776 75.7198 134.818 75.8553 134.902 75.958C134.996 76.0513 135.122 76.0977 135.28 76.0977C135.439 76.0977 135.561 76.0513 135.645 75.958C135.738 75.8554 135.784 75.7197 135.784 75.5518V71.0625L137.856 74.6982C137.903 74.7634 137.954 74.824 138.01 74.8799C138.075 74.9359 138.164 74.9639 138.276 74.9639C138.379 74.9638 138.463 74.9402 138.528 74.8936C138.594 74.8376 138.645 74.7728 138.683 74.6982L140.754 71.0635V75.5518C140.754 75.7197 140.796 75.8554 140.88 75.958C140.973 76.0513 141.099 76.0976 141.258 76.0977C141.426 76.0977 141.553 76.0513 141.637 75.958C141.721 75.8554 141.763 75.7196 141.763 75.5518V69.7002C141.763 69.495 141.721 69.3453 141.637 69.252C141.553 69.1493 141.426 69.0977 141.258 69.0977ZM157.58 69.1963C157.412 69.1963 157.281 69.2383 157.188 69.3223C157.094 69.3968 157.048 69.5039 157.048 69.6436C157.048 69.9516 157.225 70.1064 157.58 70.1064H159.624V75.5098C159.624 75.6964 159.676 75.8417 159.778 75.9443C159.881 76.0467 160.021 76.0977 160.198 76.0977C160.394 76.0976 160.534 76.0469 160.618 75.9443C160.712 75.8417 160.758 75.6964 160.758 75.5098V70.1064H162.815C162.983 70.1064 163.109 70.0686 163.193 69.9941C163.287 69.9101 163.334 69.7929 163.334 69.6436C163.334 69.3452 163.161 69.1963 162.815 69.1963H157.58ZM207.512 69.0977C207.409 69.0977 207.321 69.117 207.246 69.1543C207.171 69.1823 207.106 69.2287 207.05 69.2939C206.994 69.3499 206.947 69.42 206.91 69.5039L204.53 73.7461L202.15 69.5039C202.113 69.4199 202.066 69.3499 202.01 69.2939C201.954 69.2288 201.889 69.1823 201.814 69.1543C201.74 69.117 201.646 69.0977 201.534 69.0977C201.422 69.0977 201.329 69.1213 201.254 69.168C201.179 69.2146 201.123 69.2847 201.086 69.3779C201.049 69.4619 201.03 69.5695 201.03 69.7002V75.5518C201.03 75.7198 201.072 75.8553 201.156 75.958C201.25 76.0513 201.376 76.0977 201.534 76.0977C201.693 76.0977 201.814 76.0513 201.898 75.958C201.992 75.8554 202.038 75.7197 202.038 75.5518V71.0625L204.11 74.6982C204.157 74.7634 204.208 74.824 204.264 74.8799C204.329 74.9359 204.418 74.9639 204.53 74.9639C204.633 74.9638 204.717 74.9402 204.782 74.8936C204.847 74.8376 204.899 74.7728 204.937 74.6982L207.008 71.0635V75.5518C207.008 75.7197 207.05 75.8554 207.134 75.958C207.227 76.0513 207.353 76.0976 207.512 76.0977C207.68 76.0977 207.807 76.0513 207.891 75.958C207.975 75.8554 208.017 75.7196 208.017 75.5518V69.7002C208.017 69.495 207.975 69.3453 207.891 69.252C207.807 69.1493 207.68 69.0977 207.512 69.0977ZM215.677 69.0977C215.518 69.0977 215.388 69.1355 215.285 69.21C215.182 69.2753 215.093 69.3592 215.019 69.4619L211.295 74.4512V69.6582C211.295 69.4715 211.248 69.3316 211.154 69.2383C211.07 69.145 210.944 69.0977 210.776 69.0977C210.618 69.0977 210.492 69.145 210.398 69.2383C210.305 69.3316 210.259 69.4717 210.259 69.6582V75.4824C210.259 75.6222 210.277 75.7388 210.314 75.832C210.361 75.9254 210.422 75.991 210.497 76.0283C210.581 76.0748 210.674 76.0976 210.776 76.0977C210.944 76.0977 211.076 76.061 211.169 75.9863C211.272 75.9117 211.356 75.8276 211.421 75.7344L215.158 70.7285V75.5381C215.158 75.7154 215.201 75.8554 215.285 75.958C215.378 76.0512 215.509 76.0977 215.677 76.0977C215.845 76.0976 215.971 76.0513 216.055 75.958C216.148 75.8554 216.194 75.7154 216.194 75.5381V69.7002C216.194 69.5509 216.172 69.4336 216.125 69.3496C216.088 69.2566 216.031 69.1916 215.957 69.1543C215.882 69.117 215.789 69.0977 215.677 69.0977ZM127.708 69.1963C127.522 69.1963 127.377 69.2472 127.274 69.3496C127.172 69.4523 127.12 69.5975 127.12 69.7842V75.4121C127.12 75.5987 127.172 75.7431 127.274 75.8457C127.377 75.9483 127.521 76 127.708 76H130.55C131.334 76 131.941 75.8321 132.37 75.4961C132.799 75.1601 133.014 74.7027 133.014 74.124C133.014 73.6294 132.846 73.2279 132.51 72.9199C132.288 72.7104 132.007 72.5688 131.668 72.4932C131.923 72.4013 132.144 72.2644 132.328 72.0801C132.636 71.7815 132.79 71.4175 132.79 70.9883C132.79 70.5963 132.706 70.2691 132.538 70.0078C132.37 69.7372 132.113 69.5369 131.768 69.4062C131.422 69.2664 130.979 69.1963 130.438 69.1963H127.708ZM186.415 69.1963C186.229 69.1963 186.084 69.2472 185.981 69.3496C185.879 69.4523 185.827 69.5975 185.827 69.7842V75.4121C185.827 75.5987 185.879 75.7431 185.981 75.8457C186.084 75.9483 186.228 76 186.415 76H189.257C190.041 76 190.648 75.8321 191.077 75.4961C191.506 75.1601 191.721 74.7027 191.721 74.124C191.721 73.6294 191.553 73.2279 191.217 72.9199C190.995 72.7104 190.714 72.5688 190.375 72.4932C190.63 72.4013 190.851 72.2644 191.035 72.0801C191.343 71.7815 191.497 71.4175 191.497 70.9883C191.497 70.5963 191.413 70.2691 191.245 70.0078C191.077 69.7372 190.82 69.5369 190.475 69.4062C190.129 69.2664 189.686 69.1963 189.146 69.1963H186.415ZM197.726 73.2139C197.726 73.6152 197.642 73.9703 197.474 74.2783C197.315 74.5861 197.091 74.8286 196.802 75.0059C196.522 75.1832 196.195 75.2725 195.821 75.2725C195.364 75.2725 195 75.1507 194.729 74.9082C194.468 74.6655 194.337 74.3524 194.337 73.9697C194.337 73.6619 194.421 73.4238 194.589 73.2559C194.766 73.0879 195.07 72.9716 195.499 72.9062C195.938 72.8316 196.535 72.794 197.291 72.7939H197.726V73.2139ZM130.508 72.9199C130.965 72.9199 131.315 73.018 131.558 73.2139C131.81 73.4099 131.936 73.695 131.936 74.0684C131.935 74.4415 131.81 74.7303 131.558 74.9355C131.315 75.1315 130.965 75.2305 130.508 75.2305H128.198V72.9199H130.508ZM189.215 72.9199C189.672 72.9199 190.022 73.018 190.265 73.2139C190.517 73.4099 190.643 73.695 190.643 74.0684C190.643 74.4415 190.517 74.7303 190.265 74.9355C190.022 75.1315 189.672 75.2305 189.215 75.2305H186.905V72.9199H189.215ZM89.5947 67.46C90.2293 67.46 90.6955 67.7452 90.9941 68.3145C91.3021 68.8745 91.4561 69.7797 91.4561 71.0303C91.456 72.2808 91.3021 73.2001 90.9941 73.7881C90.6955 74.3759 90.2292 74.6699 89.5947 74.6699C88.9694 74.6699 88.5023 74.3761 88.1943 73.7881C87.8864 73.2001 87.7324 72.2808 87.7324 71.0303C87.7324 69.7799 87.8865 68.8745 88.1943 68.3145C88.5023 67.7451 88.9694 67.46 89.5947 67.46ZM130.382 69.9658C130.802 69.9658 131.129 70.0594 131.362 70.2461C131.605 70.4327 131.726 70.6988 131.726 71.0439C131.726 71.3893 131.605 71.6604 131.362 71.8564C131.129 72.0524 130.802 72.1504 130.382 72.1504H128.198V69.9658H130.382ZM189.089 69.9658C189.509 69.9658 189.836 70.0594 190.069 70.2461C190.312 70.4327 190.433 70.6988 190.433 71.0439C190.433 71.3893 190.312 71.6604 190.069 71.8564C189.836 72.0524 189.509 72.1504 189.089 72.1504H186.905V69.9658H189.089ZM146.902 69.9102C147.332 69.9102 147.687 70.0038 147.967 70.1904C148.256 70.3771 148.476 70.6474 148.625 71.002C148.756 71.3048 148.826 71.6689 148.842 72.0938H144.71C144.743 71.7468 144.82 71.4342 144.942 71.1562C145.11 70.7643 145.358 70.4608 145.685 70.2461C146.02 70.0222 146.427 69.9102 146.902 69.9102ZM167.301 69.9102C167.73 69.9102 168.085 70.0038 168.365 70.1904C168.654 70.3771 168.874 70.6474 169.023 71.002C169.154 71.3048 169.224 71.6689 169.24 72.0938H165.108C165.142 71.7468 165.219 71.4342 165.341 71.1562C165.509 70.7643 165.756 70.4608 166.083 70.2461C166.419 70.0222 166.825 69.9102 167.301 69.9102ZM110.073 70.2041C110.428 70.2041 110.722 70.2837 110.955 70.4424C111.198 70.5916 111.38 70.8105 111.501 71.0996C111.61 71.3404 111.671 71.6301 111.689 71.9678H108.256C108.288 71.7029 108.345 71.4645 108.436 71.2539C108.585 70.918 108.795 70.6617 109.065 70.4844C109.345 70.2977 109.681 70.2041 110.073 70.2041Z" fill="white"/>
<path d="M89.624 20.198C88.0987 20.198 86.7933 19.8753 85.708 19.23C84.6227 18.5847 83.7867 17.668 83.2 16.48C82.628 15.292 82.342 13.8767 82.342 12.234C82.342 11.002 82.5033 9.902 82.826 8.934C83.1633 7.95133 83.64 7.12267 84.256 6.448C84.8867 5.75867 85.6567 5.23067 86.566 4.864C87.4753 4.48267 88.4947 4.292 89.624 4.292C90.5333 4.292 91.3987 4.424 92.22 4.688C93.0413 4.93733 93.7527 5.31133 94.354 5.81C94.5447 5.95667 94.6693 6.12533 94.728 6.316C94.8013 6.492 94.8087 6.668 94.75 6.844C94.706 7.00533 94.618 7.14467 94.486 7.262C94.3687 7.36467 94.222 7.416 94.046 7.416C93.87 7.416 93.672 7.34267 93.452 7.196C92.924 6.77067 92.3447 6.45533 91.714 6.25C91.0833 6.04467 90.4013 5.942 89.668 5.942C88.5093 5.942 87.5267 6.19133 86.72 6.69C85.9133 7.174 85.3047 7.88533 84.894 8.824C84.4833 9.76267 84.278 10.8993 84.278 12.234C84.278 13.5687 84.4833 14.7127 84.894 15.666C85.3047 16.6047 85.9133 17.3233 86.72 17.822C87.5267 18.306 88.5093 18.548 89.668 18.548C90.3867 18.548 91.0687 18.4453 91.714 18.24C92.3593 18.02 92.9533 17.6973 93.496 17.272C93.716 17.1253 93.914 17.0593 94.09 17.074C94.266 17.074 94.4127 17.1253 94.53 17.228C94.6473 17.3307 94.728 17.4627 94.772 17.624C94.8307 17.7853 94.8307 17.954 94.772 18.13C94.728 18.306 94.618 18.46 94.442 18.592C93.826 19.12 93.1 19.5233 92.264 19.802C91.4427 20.066 90.5627 20.198 89.624 20.198ZM102.21 20.154C101.931 20.154 101.711 20.0733 101.55 19.912C101.389 19.736 101.308 19.5013 101.308 19.208V6.052H96.3579C96.0939 6.052 95.8886 5.97867 95.7419 5.832C95.5952 5.68533 95.5219 5.49467 95.5219 5.26C95.5219 5.01067 95.5952 4.82 95.7419 4.688C95.8886 4.556 96.0939 4.49 96.3579 4.49H108.084C108.348 4.49 108.553 4.556 108.7 4.688C108.847 4.82 108.92 5.01067 108.92 5.26C108.92 5.50933 108.847 5.70733 108.7 5.854C108.553 5.986 108.348 6.052 108.084 6.052H103.134V19.208C103.134 19.5013 103.053 19.736 102.892 19.912C102.745 20.0733 102.518 20.154 102.21 20.154ZM108.602 20.154C108.367 20.154 108.176 20.1027 108.03 20C107.898 19.8827 107.817 19.736 107.788 19.56C107.773 19.3693 107.817 19.1567 107.92 18.922L113.97 5.15C114.102 4.85667 114.256 4.65133 114.432 4.534C114.622 4.402 114.828 4.336 115.048 4.336C115.268 4.336 115.466 4.402 115.642 4.534C115.832 4.65133 115.986 4.85667 116.104 5.15L122.176 18.922C122.293 19.1567 122.337 19.3693 122.308 19.56C122.293 19.7507 122.22 19.8973 122.088 20C121.956 20.1027 121.772 20.154 121.538 20.154C121.274 20.154 121.061 20.088 120.9 19.956C120.738 19.8093 120.606 19.604 120.504 19.34L118.876 15.578L119.756 16.04H110.296L111.198 15.578L109.592 19.34C109.46 19.6187 109.32 19.824 109.174 19.956C109.027 20.088 108.836 20.154 108.602 20.154ZM115.026 6.602L111.484 14.94L110.956 14.522H119.096L118.612 14.94L115.07 6.602H115.026ZM125.949 20C125.626 20 125.377 19.9193 125.201 19.758C125.04 19.582 124.959 19.3327 124.959 19.01V5.48C124.959 5.15733 125.04 4.91533 125.201 4.754C125.377 4.578 125.626 4.49 125.949 4.49H131.163C132.234 4.49 133.136 4.65133 133.869 4.974C134.617 5.282 135.189 5.73667 135.585 6.338C135.981 6.93933 136.179 7.67267 136.179 8.538C136.179 9.506 135.893 10.3127 135.321 10.958C134.764 11.6033 134.001 12.0287 133.033 12.234V11.926C134.133 12.058 134.991 12.454 135.607 13.114C136.238 13.774 136.553 14.6467 136.553 15.732C136.553 17.1107 136.106 18.1667 135.211 18.9C134.316 19.6333 133.055 20 131.427 20H125.949ZM126.719 18.548H131.251C132.424 18.548 133.304 18.3133 133.891 17.844C134.478 17.3747 134.771 16.6633 134.771 15.71C134.771 14.742 134.478 14.0307 133.891 13.576C133.304 13.1067 132.424 12.872 131.251 12.872H126.719V18.548ZM126.719 11.42H130.899C132.043 11.42 132.908 11.1853 133.495 10.716C134.096 10.2467 134.397 9.572 134.397 8.692C134.397 7.78267 134.096 7.10067 133.495 6.646C132.908 6.17667 132.043 5.942 130.899 5.942H126.719V11.42ZM140.728 20.154C140.435 20.154 140.207 20.0733 140.046 19.912C139.899 19.736 139.826 19.5013 139.826 19.208V5.414C139.826 5.106 139.907 4.87867 140.068 4.732C140.229 4.57067 140.457 4.49 140.75 4.49H145.964C147.621 4.49 148.897 4.90067 149.792 5.722C150.687 6.52867 151.134 7.67267 151.134 9.154C151.134 10.6207 150.687 11.7647 149.792 12.586C148.897 13.4073 147.621 13.818 145.964 13.818H141.63V19.208C141.63 19.5013 141.557 19.736 141.41 19.912C141.263 20.0733 141.036 20.154 140.728 20.154ZM141.63 12.3H145.744C146.932 12.3 147.827 12.036 148.428 11.508C149.044 10.9653 149.352 10.1807 149.352 9.154C149.352 8.11267 149.044 7.328 148.428 6.8C147.827 6.25733 146.932 5.986 145.744 5.986H141.63V12.3ZM160.045 20.198C158.608 20.198 157.354 19.8753 156.283 19.23C155.227 18.57 154.406 17.646 153.819 16.458C153.247 15.27 152.961 13.862 152.961 12.234C152.961 11.002 153.122 9.902 153.445 8.934C153.782 7.95133 154.259 7.12267 154.875 6.448C155.491 5.75867 156.232 5.23067 157.097 4.864C157.977 4.48267 158.96 4.292 160.045 4.292C161.512 4.292 162.773 4.61467 163.829 5.26C164.9 5.90533 165.721 6.822 166.293 8.01C166.88 9.18333 167.173 10.584 167.173 12.212C167.173 13.444 167.004 14.5513 166.667 15.534C166.33 16.5167 165.853 17.3527 165.237 18.042C164.621 18.7313 163.873 19.2667 162.993 19.648C162.128 20.0147 161.145 20.198 160.045 20.198ZM160.045 18.592C161.16 18.592 162.098 18.3427 162.861 17.844C163.638 17.3453 164.232 16.6193 164.643 15.666C165.054 14.7127 165.259 13.5687 165.259 12.234C165.259 10.2247 164.804 8.67 163.895 7.57C163 6.45533 161.717 5.898 160.045 5.898C158.96 5.898 158.028 6.14733 157.251 6.646C156.488 7.14467 155.902 7.87067 155.491 8.824C155.08 9.76267 154.875 10.8993 154.875 12.234C154.875 14.2287 155.33 15.7907 156.239 16.92C157.148 18.0347 158.417 18.592 160.045 18.592ZM171.3 20.154C171.007 20.154 170.78 20.0733 170.618 19.912C170.472 19.736 170.398 19.5013 170.398 19.208V5.48C170.398 5.15733 170.479 4.91533 170.64 4.754C170.816 4.578 171.066 4.49 171.388 4.49H182.212C182.52 4.49 182.762 4.578 182.938 4.754C183.114 4.91533 183.202 5.15733 183.202 5.48V19.208C183.202 19.5013 183.122 19.736 182.96 19.912C182.799 20.0733 182.579 20.154 182.3 20.154C182.007 20.154 181.78 20.0733 181.618 19.912C181.457 19.736 181.376 19.5013 181.376 19.208V6.052H172.202V19.208C172.202 19.5013 172.129 19.736 171.982 19.912C171.836 20.0733 171.608 20.154 171.3 20.154ZM193.518 20.198C192.08 20.198 190.826 19.8753 189.756 19.23C188.7 18.57 187.878 17.646 187.292 16.458C186.72 15.27 186.434 13.862 186.434 12.234C186.434 11.002 186.595 9.902 186.918 8.934C187.255 7.95133 187.732 7.12267 188.348 6.448C188.964 5.75867 189.704 5.23067 190.57 4.864C191.45 4.48267 192.432 4.292 193.518 4.292C194.984 4.292 196.246 4.61467 197.302 5.26C198.372 5.90533 199.194 6.822 199.766 8.01C200.352 9.18333 200.646 10.584 200.646 12.212C200.646 13.444 200.477 14.5513 200.14 15.534C199.802 16.5167 199.326 17.3527 198.71 18.042C198.094 18.7313 197.346 19.2667 196.466 19.648C195.6 20.0147 194.618 20.198 193.518 20.198ZM193.518 18.592C194.632 18.592 195.571 18.3427 196.334 17.844C197.111 17.3453 197.705 16.6193 198.116 15.666C198.526 14.7127 198.732 13.5687 198.732 12.234C198.732 10.2247 198.277 8.67 197.368 7.57C196.473 6.45533 195.19 5.898 193.518 5.898C192.432 5.898 191.501 6.14733 190.724 6.646C189.961 7.14467 189.374 7.87067 188.964 8.824C188.553 9.76267 188.348 10.8993 188.348 12.234C188.348 14.2287 188.802 15.7907 189.712 16.92C190.621 18.0347 191.89 18.592 193.518 18.592ZM215.443 20.154C215.15 20.154 214.922 20.0733 214.761 19.912C214.6 19.736 214.519 19.5013 214.519 19.208V6.052H207.743V9.616C207.743 11.0973 207.655 12.4027 207.479 13.532C207.318 14.6467 207.068 15.622 206.731 16.458C206.408 17.2793 205.998 17.976 205.499 18.548C205.015 19.12 204.45 19.604 203.805 20C203.57 20.1613 203.343 20.22 203.123 20.176C202.903 20.132 202.72 19.9927 202.573 19.758C202.426 19.5233 202.382 19.3033 202.441 19.098C202.514 18.8927 202.668 18.7167 202.903 18.57C203.402 18.262 203.842 17.8733 204.223 17.404C204.619 16.9347 204.949 16.348 205.213 15.644C205.492 14.9253 205.704 14.038 205.851 12.982C205.998 11.926 206.071 10.65 206.071 9.154V5.48C206.071 5.15733 206.152 4.91533 206.313 4.754C206.489 4.578 206.738 4.49 207.061 4.49H215.355C215.663 4.49 215.905 4.578 216.081 4.754C216.257 4.91533 216.345 5.15733 216.345 5.48V19.208C216.345 19.5013 216.264 19.736 216.103 19.912C215.942 20.0733 215.722 20.154 215.443 20.154ZM221.168 20C220.845 20 220.596 19.9193 220.42 19.758C220.258 19.582 220.178 19.3327 220.178 19.01V5.282C220.178 4.974 220.251 4.73933 220.398 4.578C220.559 4.41667 220.786 4.336 221.08 4.336C221.373 4.336 221.593 4.41667 221.74 4.578C221.901 4.73933 221.982 4.974 221.982 5.282V11.332H226.646C227.731 11.332 228.655 11.4933 229.418 11.816C230.18 12.1387 230.76 12.6227 231.156 13.268C231.566 13.8987 231.772 14.6907 231.772 15.644C231.772 17.0667 231.324 18.152 230.43 18.9C229.535 19.6333 228.274 20 226.646 20H221.168ZM221.982 18.482H226.47C227.643 18.482 228.523 18.2547 229.11 17.8C229.696 17.3307 229.99 16.612 229.99 15.644C229.99 14.6907 229.696 13.9867 229.11 13.532C228.523 13.0773 227.643 12.85 226.47 12.85H221.982V18.482ZM241.411 20.198C239.886 20.198 238.58 19.8753 237.495 19.23C236.41 18.5847 235.574 17.668 234.987 16.48C234.415 15.292 234.129 13.8767 234.129 12.234C234.129 11.002 234.29 9.902 234.613 8.934C234.95 7.95133 235.427 7.12267 236.043 6.448C236.674 5.75867 237.444 5.23067 238.353 4.864C239.262 4.48267 240.282 4.292 241.411 4.292C242.32 4.292 243.186 4.424 244.007 4.688C244.828 4.93733 245.54 5.31133 246.141 5.81C246.332 5.95667 246.456 6.12533 246.515 6.316C246.588 6.492 246.596 6.668 246.537 6.844C246.493 7.00533 246.405 7.14467 246.273 7.262C246.156 7.36467 246.009 7.416 245.833 7.416C245.657 7.416 245.459 7.34267 245.239 7.196C244.711 6.77067 244.132 6.45533 243.501 6.25C242.87 6.04467 242.188 5.942 241.455 5.942C240.296 5.942 239.314 6.19133 238.507 6.69C237.7 7.174 237.092 7.88533 236.681 8.824C236.27 9.76267 236.065 10.8993 236.065 12.234C236.065 13.5687 236.27 14.7127 236.681 15.666C237.092 16.6047 237.7 17.3233 238.507 17.822C239.314 18.306 240.296 18.548 241.455 18.548C242.174 18.548 242.856 18.4453 243.501 18.24C244.146 18.02 244.74 17.6973 245.283 17.272C245.503 17.1253 245.701 17.0593 245.877 17.074C246.053 17.074 246.2 17.1253 246.317 17.228C246.434 17.3307 246.515 17.4627 246.559 17.624C246.618 17.7853 246.618 17.954 246.559 18.13C246.515 18.306 246.405 18.46 246.229 18.592C245.613 19.12 244.887 19.5233 244.051 19.802C243.23 20.066 242.35 20.198 241.411 20.198ZM250.406 20.154C250.113 20.154 249.885 20.0733 249.724 19.912C249.577 19.736 249.504 19.5013 249.504 19.208V5.26C249.504 4.952 249.577 4.72467 249.724 4.578C249.885 4.41667 250.113 4.336 250.406 4.336C250.699 4.336 250.919 4.41667 251.066 4.578C251.227 4.72467 251.308 4.952 251.308 5.26V11.398H254.344L253.816 11.75L258.392 4.82C258.524 4.61467 258.678 4.48267 258.854 4.424C259.03 4.35067 259.206 4.336 259.382 4.38C259.558 4.40933 259.705 4.49 259.822 4.622C259.939 4.73933 260.005 4.89333 260.02 5.084C260.049 5.26 259.998 5.45067 259.866 5.656L255.576 12.058L254.894 11.464C255.789 11.5667 256.551 11.882 257.182 12.41C257.813 12.938 258.363 13.6713 258.832 14.61L260.922 18.878C261.039 19.1127 261.076 19.3253 261.032 19.516C260.988 19.692 260.893 19.8313 260.746 19.934C260.599 20.0367 260.431 20.0953 260.24 20.11C260.064 20.1393 259.888 20.11 259.712 20.022C259.536 19.934 259.397 19.78 259.294 19.56L257.336 15.446C256.896 14.5513 256.397 13.9133 255.84 13.532C255.297 13.1507 254.623 12.96 253.816 12.96H251.308V19.208C251.308 19.5013 251.235 19.736 251.088 19.912C250.941 20.0733 250.714 20.154 250.406 20.154ZM264.368 20.154C264.25 20.154 264.14 20.132 264.038 20.088C263.95 20.0587 263.869 20 263.796 19.912C263.737 19.824 263.686 19.7287 263.642 19.626C263.612 19.5087 263.598 19.3693 263.598 19.208V5.216C263.598 4.93733 263.671 4.72467 263.818 4.578C263.964 4.41667 264.177 4.336 264.456 4.336C264.72 4.336 264.925 4.41667 265.072 4.578C265.218 4.72467 265.292 4.93733 265.292 5.216V17.668H264.808L274.356 4.886C274.488 4.68067 274.62 4.54133 274.752 4.468C274.898 4.38 275.082 4.336 275.302 4.336C275.463 4.336 275.595 4.37267 275.698 4.446C275.8 4.50467 275.881 4.6 275.94 4.732C275.998 4.864 276.028 5.02533 276.028 5.216V19.252C276.028 19.5453 275.954 19.7727 275.808 19.934C275.676 20.0807 275.478 20.154 275.214 20.154C274.935 20.154 274.722 20.0807 274.576 19.934C274.429 19.7727 274.356 19.5453 274.356 19.252V6.822H274.84L265.292 19.604C265.145 19.7947 265.013 19.934 264.896 20.022C264.778 20.11 264.602 20.154 264.368 20.154ZM280.653 20.154C280.535 20.154 280.425 20.132 280.323 20.088C280.235 20.0587 280.154 20 280.081 19.912C280.022 19.824 279.971 19.7287 279.927 19.626C279.897 19.5087 279.883 19.3693 279.883 19.208V5.216C279.883 4.93733 279.956 4.72467 280.103 4.578C280.249 4.41667 280.462 4.336 280.741 4.336C281.005 4.336 281.21 4.41667 281.357 4.578C281.503 4.72467 281.577 4.93733 281.577 5.216V17.668H281.093L290.641 4.886C290.773 4.68067 290.905 4.54133 291.037 4.468C291.183 4.38 291.367 4.336 291.587 4.336C291.748 4.336 291.88 4.37267 291.983 4.446C292.085 4.50467 292.166 4.6 292.225 4.732C292.283 4.864 292.313 5.02533 292.313 5.216V19.252C292.313 19.5453 292.239 19.7727 292.093 19.934C291.961 20.0807 291.763 20.154 291.499 20.154C291.22 20.154 291.007 20.0807 290.861 19.934C290.714 19.7727 290.641 19.5453 290.641 19.252V6.822H291.125L281.577 19.604C281.43 19.7947 281.298 19.934 281.181 20.022C281.063 20.11 280.887 20.154 280.653 20.154ZM286.109 3.28C285.229 3.28 284.437 3.082 283.733 2.686C283.029 2.29 282.493 1.68867 282.127 0.882C282.039 0.661999 282.024 0.485999 282.083 0.353999C282.141 0.207332 282.251 0.104665 282.413 0.0459986C282.574 -0.0126682 282.721 -0.0126682 282.853 0.0459986C282.985 0.104665 283.095 0.229332 283.183 0.419999C283.461 0.977332 283.843 1.40267 284.327 1.696C284.811 1.98933 285.405 2.136 286.109 2.136C286.827 2.136 287.421 1.98933 287.891 1.696C288.375 1.40267 288.756 0.977332 289.035 0.419999C289.137 0.229332 289.247 0.104665 289.365 0.0459986C289.497 -0.0126682 289.643 -0.0126682 289.805 0.0459986C289.981 0.104665 290.091 0.207332 290.135 0.353999C290.193 0.485999 290.171 0.661999 290.069 0.882C289.687 1.68867 289.145 2.29 288.441 2.686C287.737 3.082 286.959 3.28 286.109 3.28ZM83.816 50.154C83.5227 50.154 83.2953 50.0733 83.134 49.912C82.9873 49.736 82.914 49.5013 82.914 49.208V35.26C82.914 34.952 82.9873 34.7247 83.134 34.578C83.2953 34.4167 83.5227 34.336 83.816 34.336C84.1093 34.336 84.3293 34.4167 84.476 34.578C84.6373 34.7247 84.718 34.952 84.718 35.26V41.398H87.754L87.226 41.75L91.802 34.82C91.934 34.6147 92.088 34.4827 92.264 34.424C92.44 34.3507 92.616 34.336 92.792 34.38C92.968 34.4093 93.1147 34.49 93.232 34.622C93.3493 34.7393 93.4153 34.8933 93.43 35.084C93.4593 35.26 93.408 35.4507 93.276 35.656L88.986 42.058L88.304 41.464C89.1987 41.5667 89.9613 41.882 90.592 42.41C91.2227 42.938 91.7727 43.6713 92.242 44.61L94.332 48.878C94.4493 49.1127 94.486 49.3253 94.442 49.516C94.398 49.692 94.3027 49.8313 94.156 49.934C94.0093 50.0367 93.8407 50.0953 93.65 50.11C93.474 50.1393 93.298 50.11 93.122 50.022C92.946 49.934 92.8067 49.78 92.704 49.56L90.746 45.446C90.306 44.5513 89.8073 43.9133 89.25 43.532C88.7073 43.1507 88.0327 42.96 87.226 42.96H84.718V49.208C84.718 49.5013 84.6447 49.736 84.498 49.912C84.3513 50.0733 84.124 50.154 83.816 50.154ZM103.391 50.198C101.954 50.198 100.7 49.8753 99.6288 49.23C98.5728 48.57 97.7515 47.646 97.1648 46.458C96.5928 45.27 96.3068 43.862 96.3068 42.234C96.3068 41.002 96.4682 39.902 96.7908 38.934C97.1282 37.9513 97.6048 37.1227 98.2208 36.448C98.8368 35.7587 99.5775 35.2307 100.443 34.864C101.323 34.4827 102.306 34.292 103.391 34.292C104.858 34.292 106.119 34.6147 107.175 35.26C108.246 35.9053 109.067 36.822 109.639 38.01C110.226 39.1833 110.519 40.584 110.519 42.212C110.519 43.444 110.35 44.5513 110.013 45.534C109.676 46.5167 109.199 47.3527 108.583 48.042C107.967 48.7313 107.219 49.2667 106.339 49.648C105.474 50.0147 104.491 50.198 103.391 50.198ZM103.391 48.592C104.506 48.592 105.444 48.3427 106.207 47.844C106.984 47.3453 107.578 46.6193 107.989 45.666C108.4 44.7127 108.605 43.5687 108.605 42.234C108.605 40.2247 108.15 38.67 107.241 37.57C106.346 36.4553 105.063 35.898 103.391 35.898C102.306 35.898 101.374 36.1473 100.597 36.646C99.8342 37.1447 99.2475 37.8707 98.8368 38.824C98.4262 39.7627 98.2208 40.8993 98.2208 42.234C98.2208 44.2287 98.6755 45.7907 99.5848 46.92C100.494 48.0347 101.763 48.592 103.391 48.592ZM125.316 50.154C125.023 50.154 124.795 50.0733 124.634 49.912C124.473 49.736 124.392 49.5013 124.392 49.208V36.052H117.616V39.616C117.616 41.0973 117.528 42.4027 117.352 43.532C117.191 44.6467 116.941 45.622 116.604 46.458C116.281 47.2793 115.871 47.976 115.372 48.548C114.888 49.12 114.323 49.604 113.678 50C113.443 50.1613 113.216 50.22 112.996 50.176C112.776 50.132 112.593 49.9927 112.446 49.758C112.299 49.5233 112.255 49.3033 112.314 49.098C112.387 48.8927 112.541 48.7167 112.776 48.57C113.275 48.262 113.715 47.8733 114.096 47.404C114.492 46.9347 114.822 46.348 115.086 45.644C115.365 44.9253 115.577 44.038 115.724 42.982C115.871 41.926 115.944 40.65 115.944 39.154V35.48C115.944 35.1573 116.025 34.9153 116.186 34.754C116.362 34.578 116.611 34.49 116.934 34.49H125.228C125.536 34.49 125.778 34.578 125.954 34.754C126.13 34.9153 126.218 35.1573 126.218 35.48V49.208C126.218 49.5013 126.137 49.736 125.976 49.912C125.815 50.0733 125.595 50.154 125.316 50.154ZM141.623 50.154C141.329 50.154 141.102 50.0733 140.941 49.912C140.779 49.736 140.699 49.5013 140.699 49.208V36.052H133.923V39.616C133.923 41.0973 133.835 42.4027 133.659 43.532C133.497 44.6467 133.248 45.622 132.911 46.458C132.588 47.2793 132.177 47.976 131.679 48.548C131.195 49.12 130.63 49.604 129.985 50C129.75 50.1613 129.523 50.22 129.303 50.176C129.083 50.132 128.899 49.9927 128.753 49.758C128.606 49.5233 128.562 49.3033 128.621 49.098C128.694 48.8927 128.848 48.7167 129.083 48.57C129.581 48.262 130.021 47.8733 130.403 47.404C130.799 46.9347 131.129 46.348 131.393 45.644C131.671 44.9253 131.884 44.038 132.031 42.982C132.177 41.926 132.251 40.65 132.251 39.154V35.48C132.251 35.1573 132.331 34.9153 132.493 34.754C132.669 34.578 132.918 34.49 133.241 34.49H141.535C141.843 34.49 142.085 34.578 142.261 34.754C142.437 34.9153 142.525 35.1573 142.525 35.48V49.208C142.525 49.5013 142.444 49.736 142.283 49.912C142.121 50.0733 141.901 50.154 141.623 50.154ZM147.347 50C147.025 50 146.775 49.9193 146.599 49.758C146.438 49.582 146.357 49.3327 146.357 49.01V35.48C146.357 35.1573 146.438 34.9153 146.599 34.754C146.775 34.578 147.025 34.49 147.347 34.49H155.531C155.781 34.49 155.971 34.556 156.103 34.688C156.235 34.82 156.301 35.0033 156.301 35.238C156.301 35.4873 156.235 35.678 156.103 35.81C155.971 35.942 155.781 36.008 155.531 36.008H148.117V41.376H155.069C155.319 41.376 155.509 41.442 155.641 41.574C155.773 41.6913 155.839 41.8747 155.839 42.124C155.839 42.3733 155.773 42.564 155.641 42.696C155.509 42.828 155.319 42.894 155.069 42.894H148.117V48.482H155.531C155.781 48.482 155.971 48.548 156.103 48.68C156.235 48.812 156.301 48.9953 156.301 49.23C156.301 49.4793 156.235 49.67 156.103 49.802C155.971 49.934 155.781 50 155.531 50H147.347ZM158.458 53.608C158.194 53.608 157.988 53.5347 157.842 53.388C157.71 53.2413 157.644 53.0287 157.644 52.75V49.384C157.644 48.7827 157.944 48.482 158.546 48.482H159.976L158.898 48.79C159.748 47.8513 160.379 46.546 160.79 44.874C161.2 43.1873 161.406 41.0607 161.406 38.494V35.48C161.406 35.1573 161.486 34.9153 161.648 34.754C161.824 34.578 162.073 34.49 162.396 34.49H170.712C171.02 34.49 171.262 34.578 171.438 34.754C171.614 34.9153 171.702 35.1573 171.702 35.48V49.208L170.976 48.482H172.978C173.271 48.482 173.498 48.5627 173.66 48.724C173.821 48.8707 173.902 49.0907 173.902 49.384V52.75C173.902 53.322 173.63 53.608 173.088 53.608C172.809 53.608 172.596 53.5347 172.45 53.388C172.318 53.2413 172.252 53.0287 172.252 52.75V50H159.272V52.75C159.272 53.322 159 53.608 158.458 53.608ZM161.054 48.482H169.876V36.008H163.1V38.626C163.1 40.9873 162.931 42.96 162.594 44.544C162.271 46.128 161.758 47.4407 161.054 48.482ZM185.063 50.154C184.769 50.154 184.542 50.0733 184.381 49.912C184.234 49.736 184.161 49.5013 184.161 49.208V42.96H182.269C181.447 42.96 180.758 43.158 180.201 43.554C179.643 43.9353 179.152 44.566 178.727 45.446L176.769 49.56C176.666 49.78 176.527 49.934 176.351 50.022C176.175 50.11 175.991 50.1393 175.801 50.11C175.625 50.0953 175.463 50.0367 175.317 49.934C175.17 49.8313 175.075 49.692 175.031 49.516C174.987 49.3253 175.023 49.1127 175.141 48.878L177.231 44.61C177.7 43.6713 178.257 42.938 178.903 42.41C179.548 41.882 180.311 41.5667 181.191 41.464L180.531 42.058L176.241 35.656C176.109 35.4507 176.05 35.26 176.065 35.084C176.079 34.8933 176.145 34.7393 176.263 34.622C176.395 34.49 176.541 34.4093 176.703 34.38C176.879 34.336 177.055 34.3507 177.231 34.424C177.421 34.4827 177.583 34.6147 177.715 34.82L182.291 41.75L181.785 41.398H184.161V35.26C184.161 34.952 184.234 34.7247 184.381 34.578C184.542 34.4167 184.769 34.336 185.063 34.336C185.341 34.336 185.554 34.4167 185.701 34.578C185.847 34.7247 185.921 34.952 185.921 35.26V41.398H188.341L187.813 41.75L192.389 34.82C192.521 34.6147 192.675 34.4827 192.851 34.424C193.041 34.3507 193.217 34.336 193.379 34.38C193.555 34.4093 193.701 34.49 193.819 34.622C193.951 34.7393 194.024 34.8933 194.039 35.084C194.053 35.26 193.995 35.4507 193.863 35.656L189.573 42.058L188.913 41.464C189.499 41.5373 190.027 41.706 190.497 41.97C190.981 42.2193 191.413 42.564 191.795 43.004C192.191 43.444 192.535 43.9793 192.829 44.61L194.919 48.878C195.051 49.1127 195.087 49.3253 195.029 49.516C194.985 49.692 194.889 49.8313 194.743 49.934C194.596 50.0367 194.427 50.0953 194.237 50.11C194.061 50.1393 193.885 50.11 193.709 50.022C193.533 49.934 193.393 49.78 193.291 49.56L191.333 45.446C190.907 44.5513 190.416 43.9133 189.859 43.532C189.301 43.1507 188.627 42.96 187.835 42.96H185.921V49.208C185.921 49.5013 185.847 49.736 185.701 49.912C185.554 50.0733 185.341 50.154 185.063 50.154ZM209.979 50.198C208.454 50.198 207.149 49.8753 206.063 49.23C204.978 48.5847 204.142 47.668 203.555 46.48C202.983 45.292 202.697 43.8767 202.697 42.234C202.697 41.002 202.859 39.902 203.181 38.934C203.519 37.9513 203.995 37.1227 204.611 36.448C205.242 35.7587 206.012 35.2307 206.921 34.864C207.831 34.4827 208.85 34.292 209.979 34.292C210.889 34.292 211.754 34.424 212.575 34.688C213.397 34.9373 214.108 35.3113 214.709 35.81C214.9 35.9567 215.025 36.1253 215.083 36.316C215.157 36.492 215.164 36.668 215.105 36.844C215.061 37.0053 214.973 37.1447 214.841 37.262C214.724 37.3647 214.577 37.416 214.401 37.416C214.225 37.416 214.027 37.3427 213.807 37.196C213.279 36.7707 212.7 36.4553 212.069 36.25C211.439 36.0447 210.757 35.942 210.023 35.942C208.865 35.942 207.882 36.1913 207.075 36.69C206.269 37.174 205.66 37.8853 205.249 38.824C204.839 39.7627 204.633 40.8993 204.633 42.234C204.633 43.5687 204.839 44.7127 205.249 45.666C205.66 46.6047 206.269 47.3233 207.075 47.822C207.882 48.306 208.865 48.548 210.023 48.548C210.742 48.548 211.424 48.4453 212.069 48.24C212.715 48.02 213.309 47.6973 213.851 47.272C214.071 47.1253 214.269 47.0593 214.445 47.074C214.621 47.074 214.768 47.1253 214.885 47.228C215.003 47.3307 215.083 47.4627 215.127 47.624C215.186 47.7853 215.186 47.954 215.127 48.13C215.083 48.306 214.973 48.46 214.797 48.592C214.181 49.12 213.455 49.5233 212.619 49.802C211.798 50.066 210.918 50.198 209.979 50.198ZM219.062 50C218.74 50 218.49 49.9193 218.314 49.758C218.153 49.582 218.072 49.3327 218.072 49.01V35.48C218.072 35.1573 218.153 34.9153 218.314 34.754C218.49 34.578 218.74 34.49 219.062 34.49H224.276C225.347 34.49 226.249 34.6513 226.982 34.974C227.73 35.282 228.302 35.7367 228.698 36.338C229.094 36.9393 229.292 37.6727 229.292 38.538C229.292 39.506 229.006 40.3127 228.434 40.958C227.877 41.6033 227.114 42.0287 226.146 42.234V41.926C227.246 42.058 228.104 42.454 228.72 43.114C229.351 43.774 229.666 44.6467 229.666 45.732C229.666 47.1107 229.219 48.1667 228.324 48.9C227.43 49.6333 226.168 50 224.54 50H219.062ZM219.832 48.548H224.364C225.538 48.548 226.418 48.3133 227.004 47.844C227.591 47.3747 227.884 46.6633 227.884 45.71C227.884 44.742 227.591 44.0307 227.004 43.576C226.418 43.1067 225.538 42.872 224.364 42.872H219.832V48.548ZM219.832 41.42H224.012C225.156 41.42 226.022 41.1853 226.608 40.716C227.21 40.2467 227.51 39.572 227.51 38.692C227.51 37.7827 227.21 37.1007 226.608 36.646C226.022 36.1767 225.156 35.942 224.012 35.942H219.832V41.42ZM242.949 50.154C242.656 50.154 242.429 50.0733 242.267 49.912C242.121 49.736 242.047 49.5013 242.047 49.208V43.444H239.451C238.982 43.444 238.571 43.488 238.219 43.576C237.882 43.664 237.574 43.8253 237.295 44.06C237.031 44.28 236.789 44.6027 236.569 45.028L234.105 49.582C233.988 49.802 233.834 49.956 233.643 50.044C233.453 50.132 233.269 50.1613 233.093 50.132C232.917 50.1027 232.763 50.0293 232.631 49.912C232.499 49.78 232.419 49.6187 232.389 49.428C232.36 49.2373 232.411 49.0173 232.543 48.768L234.611 44.94C234.949 44.3093 235.33 43.8473 235.755 43.554C236.195 43.246 236.701 43.092 237.273 43.092H237.845L237.713 43.378C236.085 43.378 234.817 42.9893 233.907 42.212C232.998 41.4347 232.543 40.3567 232.543 38.978C232.543 38.01 232.741 37.196 233.137 36.536C233.533 35.876 234.12 35.37 234.897 35.018C235.675 34.666 236.613 34.49 237.713 34.49H242.861C243.184 34.49 243.426 34.578 243.587 34.754C243.763 34.9153 243.851 35.1573 243.851 35.48V49.208C243.851 49.5013 243.771 49.736 243.609 49.912C243.463 50.0733 243.243 50.154 242.949 50.154ZM237.977 42.014H242.047V35.986H237.977C236.775 35.986 235.865 36.2427 235.249 36.756C234.633 37.2547 234.325 37.9953 234.325 38.978C234.325 39.99 234.633 40.7527 235.249 41.266C235.865 41.7647 236.775 42.014 237.977 42.014ZM252.628 50.198C251.469 50.198 250.406 50.0513 249.438 49.758C248.484 49.4647 247.685 49.054 247.04 48.526C246.864 48.394 246.746 48.2473 246.688 48.086C246.644 47.9247 246.636 47.7633 246.666 47.602C246.71 47.4407 246.79 47.3087 246.908 47.206C247.025 47.1033 247.164 47.0447 247.326 47.03C247.502 47.0153 247.685 47.074 247.876 47.206C248.301 47.514 248.748 47.7707 249.218 47.976C249.702 48.1813 250.215 48.3353 250.758 48.438C251.315 48.5407 251.902 48.592 252.518 48.592C253.471 48.592 254.248 48.482 254.85 48.262C255.466 48.042 255.92 47.7193 256.214 47.294C256.507 46.854 256.654 46.3113 256.654 45.666C256.654 44.7127 256.36 44.016 255.774 43.576C255.202 43.1213 254.322 42.894 253.134 42.894H250.01C249.76 42.894 249.562 42.828 249.416 42.696C249.269 42.564 249.196 42.3807 249.196 42.146C249.196 41.8967 249.269 41.7133 249.416 41.596C249.562 41.464 249.76 41.398 250.01 41.398H252.782C253.94 41.398 254.813 41.1707 255.4 40.716C255.986 40.2613 256.28 39.594 256.28 38.714C256.28 38.1273 256.14 37.6213 255.862 37.196C255.583 36.7707 255.165 36.448 254.608 36.228C254.065 36.008 253.376 35.898 252.54 35.898C251.762 35.898 251.007 36.0007 250.274 36.206C249.555 36.4113 248.888 36.7413 248.272 37.196C248.081 37.3133 247.898 37.372 247.722 37.372C247.56 37.3573 247.421 37.2987 247.304 37.196C247.186 37.0787 247.106 36.9393 247.062 36.778C247.032 36.6167 247.047 36.4553 247.106 36.294C247.164 36.1327 247.282 35.9933 247.458 35.876C248.162 35.3333 248.968 34.9373 249.878 34.688C250.802 34.424 251.733 34.292 252.672 34.292C253.889 34.292 254.894 34.468 255.686 34.82C256.492 35.172 257.094 35.6633 257.49 36.294C257.9 36.9247 258.106 37.6727 258.106 38.538C258.106 39.506 257.82 40.3127 257.248 40.958C256.69 41.6033 255.928 42.0287 254.96 42.234V41.926C256.045 42.058 256.903 42.454 257.534 43.114C258.164 43.774 258.48 44.6467 258.48 45.732C258.48 46.656 258.267 47.4553 257.842 48.13C257.416 48.79 256.771 49.3033 255.906 49.67C255.055 50.022 253.962 50.198 252.628 50.198ZM262.52 50.154C262.403 50.154 262.293 50.132 262.19 50.088C262.102 50.0587 262.021 50 261.948 49.912C261.889 49.824 261.838 49.7287 261.794 49.626C261.765 49.5087 261.75 49.3693 261.75 49.208V35.216C261.75 34.9373 261.823 34.7247 261.97 34.578C262.117 34.4167 262.329 34.336 262.608 34.336C262.872 34.336 263.077 34.4167 263.224 34.578C263.371 34.7247 263.444 34.9373 263.444 35.216V47.668H262.96L272.508 34.886C272.64 34.6807 272.772 34.5413 272.904 34.468C273.051 34.38 273.234 34.336 273.454 34.336C273.615 34.336 273.747 34.3727 273.85 34.446C273.953 34.5047 274.033 34.6 274.092 34.732C274.151 34.864 274.18 35.0253 274.18 35.216V49.252C274.18 49.5453 274.107 49.7727 273.96 49.934C273.828 50.0807 273.63 50.154 273.366 50.154C273.087 50.154 272.875 50.0807 272.728 49.934C272.581 49.7727 272.508 49.5453 272.508 49.252V36.822H272.992L263.444 49.604C263.297 49.7947 263.165 49.934 263.048 50.022C262.931 50.11 262.755 50.154 262.52 50.154Z" fill="white"/>
</g>
<defs>
<clipPath id="clip0_206_2">
<rect width="293" height="80" fill="white"/>
</clipPath>
</defs>
</svg>
